<mxfile host="65bd71144e">
    <diagram id="JYeSjUyjTeBZQibeHls9" name="Page-1">
        <mxGraphModel dx="1164" dy="779" grid="1" gridSize="10" guides="1" tooltips="1" connect="1" arrows="1" fold="1" page="1" pageScale="1" pageWidth="850" pageHeight="1100" math="0" shadow="0">
            <root>
                <mxCell id="0"/>
                <mxCell id="1" parent="0"/>
                <mxCell id="4" value="비밀번호" style="ellipse;whiteSpace=wrap;html=1;align=center;" parent="1" vertex="1">
                    <mxGeometry x="216" y="273" width="100" height="40" as="geometry"/>
                </mxCell>
                <mxCell id="67" value="공급" style="shape=rhombus;perimeter=rhombusPerimeter;whiteSpace=wrap;html=1;align=center;" parent="1" vertex="1">
                    <mxGeometry x="30" y="1147" width="120" height="60" as="geometry"/>
                </mxCell>
                <mxCell id="70" value="" style="endArrow=none;html=1;rounded=0;exitX=0.5;exitY=1;exitDx=0;exitDy=0;entryX=0.5;entryY=0;entryDx=0;entryDy=0;" parent="1" source="66" target="20" edge="1">
                    <mxGeometry relative="1" as="geometry">
                        <mxPoint x="100" y="566" as="sourcePoint"/>
                        <mxPoint x="100" y="456" as="targetPoint"/>
                    </mxGeometry>
                </mxCell>
                <mxCell id="71" value="N" style="resizable=0;html=1;whiteSpace=wrap;align=right;verticalAlign=bottom;" parent="70" connectable="0" vertex="1">
                    <mxGeometry x="1" relative="1" as="geometry">
                        <mxPoint x="13" y="-1" as="offset"/>
                    </mxGeometry>
                </mxCell>
                <mxCell id="73" value="" style="endArrow=none;html=1;rounded=0;entryX=0.5;entryY=1;entryDx=0;entryDy=0;exitX=0.5;exitY=0;exitDx=0;exitDy=0;" parent="1" source="66" target="2" edge="1">
                    <mxGeometry relative="1" as="geometry">
                        <mxPoint x="90" y="523" as="sourcePoint"/>
                        <mxPoint x="89.5" y="449" as="targetPoint"/>
                    </mxGeometry>
                </mxCell>
                <mxCell id="74" value="M" style="resizable=0;html=1;whiteSpace=wrap;align=right;verticalAlign=bottom;" parent="73" connectable="0" vertex="1">
                    <mxGeometry x="1" relative="1" as="geometry">
                        <mxPoint x="15" y="17" as="offset"/>
                    </mxGeometry>
                </mxCell>
                <mxCell id="87" value="" style="endArrow=none;html=1;rounded=0;exitX=0.5;exitY=1;exitDx=0;exitDy=0;entryX=0.5;entryY=0;entryDx=0;entryDy=0;" parent="1" source="20" target="67" edge="1">
                    <mxGeometry relative="1" as="geometry">
                        <mxPoint x="89.5" y="993" as="sourcePoint"/>
                        <mxPoint x="89.5" y="1191" as="targetPoint"/>
                    </mxGeometry>
                </mxCell>
                <mxCell id="88" value="1" style="resizable=0;html=1;whiteSpace=wrap;align=right;verticalAlign=bottom;" parent="87" connectable="0" vertex="1">
                    <mxGeometry x="1" relative="1" as="geometry">
                        <mxPoint x="11" y="-149" as="offset"/>
                    </mxGeometry>
                </mxCell>
                <mxCell id="105" value="" style="group" parent="1" vertex="1" connectable="0">
                    <mxGeometry x="320" y="1057" width="276" height="240" as="geometry"/>
                </mxCell>
                <mxCell id="46" value="제조업체" style="whiteSpace=wrap;html=1;align=center;" parent="105" vertex="1">
                    <mxGeometry y="100" width="100" height="40" as="geometry"/>
                </mxCell>
                <mxCell id="47" value="업체코드" style="ellipse;whiteSpace=wrap;html=1;align=center;fontStyle=4;" parent="105" vertex="1">
                    <mxGeometry x="176" width="100" height="40" as="geometry"/>
                </mxCell>
                <mxCell id="48" value="업체명" style="ellipse;whiteSpace=wrap;html=1;align=center;" parent="105" vertex="1">
                    <mxGeometry x="176" y="52" width="100" height="40" as="geometry"/>
                </mxCell>
                <mxCell id="49" value="전화번호" style="ellipse;whiteSpace=wrap;html=1;align=center;" parent="105" vertex="1">
                    <mxGeometry x="176" y="100" width="100" height="40" as="geometry"/>
                </mxCell>
                <mxCell id="50" value="위치" style="ellipse;whiteSpace=wrap;html=1;align=center;" parent="105" vertex="1">
                    <mxGeometry x="176" y="152" width="100" height="40" as="geometry"/>
                </mxCell>
                <mxCell id="51" value="" style="endArrow=none;html=1;rounded=0;entryX=0;entryY=0.5;entryDx=0;entryDy=0;exitX=1;exitY=0.5;exitDx=0;exitDy=0;" parent="105" source="46" target="47" edge="1">
                    <mxGeometry relative="1" as="geometry">
                        <mxPoint x="110" y="76" as="sourcePoint"/>
                        <mxPoint x="186" y="227" as="targetPoint"/>
                    </mxGeometry>
                </mxCell>
                <mxCell id="52" value="" style="endArrow=none;html=1;rounded=0;exitX=1;exitY=0.5;exitDx=0;exitDy=0;entryX=0;entryY=0.5;entryDx=0;entryDy=0;" parent="105" source="46" target="48" edge="1">
                    <mxGeometry relative="1" as="geometry">
                        <mxPoint x="110" y="105" as="sourcePoint"/>
                        <mxPoint x="150" y="64" as="targetPoint"/>
                    </mxGeometry>
                </mxCell>
                <mxCell id="53" value="" style="endArrow=none;html=1;rounded=0;entryX=0;entryY=0.5;entryDx=0;entryDy=0;exitX=1;exitY=0.5;exitDx=0;exitDy=0;" parent="105" source="46" target="49" edge="1">
                    <mxGeometry relative="1" as="geometry">
                        <mxPoint x="30" y="231.5" as="sourcePoint"/>
                        <mxPoint x="90" y="156.5" as="targetPoint"/>
                    </mxGeometry>
                </mxCell>
                <mxCell id="54" value="" style="endArrow=none;html=1;rounded=0;entryX=0;entryY=0.5;entryDx=0;entryDy=0;exitX=1;exitY=0.5;exitDx=0;exitDy=0;" parent="105" source="46" target="50" edge="1">
                    <mxGeometry relative="1" as="geometry">
                        <mxPoint x="60" y="266" as="sourcePoint"/>
                        <mxPoint x="120" y="191" as="targetPoint"/>
                    </mxGeometry>
                </mxCell>
                <mxCell id="55" value="담당자" style="ellipse;whiteSpace=wrap;html=1;align=center;" parent="105" vertex="1">
                    <mxGeometry x="176" y="200" width="100" height="40" as="geometry"/>
                </mxCell>
                <mxCell id="56" value="" style="endArrow=none;html=1;rounded=0;entryX=0;entryY=0.5;entryDx=0;entryDy=0;exitX=1;exitY=0.5;exitDx=0;exitDy=0;" parent="105" source="46" target="55" edge="1">
                    <mxGeometry relative="1" as="geometry">
                        <mxPoint x="90" y="133.5" as="sourcePoint"/>
                        <mxPoint x="150" y="210.5" as="targetPoint"/>
                    </mxGeometry>
                </mxCell>
                <mxCell id="106" value="" style="group" parent="1" vertex="1" connectable="0">
                    <mxGeometry x="320" y="40" width="276" height="192" as="geometry"/>
                </mxCell>
                <mxCell id="57" value="게시글" style="whiteSpace=wrap;html=1;align=center;" parent="106" vertex="1">
                    <mxGeometry y="75" width="100" height="40" as="geometry"/>
                </mxCell>
                <mxCell id="58" value="글번호" style="ellipse;whiteSpace=wrap;html=1;align=center;fontStyle=4;" parent="106" vertex="1">
                    <mxGeometry x="176" width="100" height="40" as="geometry"/>
                </mxCell>
                <mxCell id="59" value="제목" style="ellipse;whiteSpace=wrap;html=1;align=center;" parent="106" vertex="1">
                    <mxGeometry x="176" y="52" width="100" height="40" as="geometry"/>
                </mxCell>
                <mxCell id="60" value="내용" style="ellipse;whiteSpace=wrap;html=1;align=center;" parent="106" vertex="1">
                    <mxGeometry x="176" y="100" width="100" height="40" as="geometry"/>
                </mxCell>
                <mxCell id="61" value="작성일" style="ellipse;whiteSpace=wrap;html=1;align=center;" parent="106" vertex="1">
                    <mxGeometry x="176" y="152" width="100" height="40" as="geometry"/>
                </mxCell>
                <mxCell id="62" value="" style="endArrow=none;html=1;rounded=0;entryX=0;entryY=0.5;entryDx=0;entryDy=0;exitX=1;exitY=0.5;exitDx=0;exitDy=0;" parent="106" source="57" target="58" edge="1">
                    <mxGeometry relative="1" as="geometry">
                        <mxPoint x="110" y="76" as="sourcePoint"/>
                        <mxPoint x="186" y="227" as="targetPoint"/>
                    </mxGeometry>
                </mxCell>
                <mxCell id="63" value="" style="endArrow=none;html=1;rounded=0;exitX=1;exitY=0.5;exitDx=0;exitDy=0;entryX=0;entryY=0.5;entryDx=0;entryDy=0;" parent="106" source="57" target="59" edge="1">
                    <mxGeometry relative="1" as="geometry">
                        <mxPoint x="110" y="105" as="sourcePoint"/>
                        <mxPoint x="150" y="64" as="targetPoint"/>
                    </mxGeometry>
                </mxCell>
                <mxCell id="64" value="" style="endArrow=none;html=1;rounded=0;entryX=0;entryY=0.5;entryDx=0;entryDy=0;exitX=1;exitY=0.5;exitDx=0;exitDy=0;" parent="106" source="57" target="60" edge="1">
                    <mxGeometry relative="1" as="geometry">
                        <mxPoint x="30" y="231.5" as="sourcePoint"/>
                        <mxPoint x="90" y="156.5" as="targetPoint"/>
                    </mxGeometry>
                </mxCell>
                <mxCell id="65" value="" style="endArrow=none;html=1;rounded=0;entryX=0;entryY=0.5;entryDx=0;entryDy=0;exitX=1;exitY=0.5;exitDx=0;exitDy=0;" parent="106" source="57" target="61" edge="1">
                    <mxGeometry relative="1" as="geometry">
                        <mxPoint x="60" y="266" as="sourcePoint"/>
                        <mxPoint x="120" y="191" as="targetPoint"/>
                    </mxGeometry>
                </mxCell>
                <mxCell id="107" value="" style="group" parent="1" vertex="1" connectable="0">
                    <mxGeometry x="40" y="221" width="276" height="342" as="geometry"/>
                </mxCell>
                <mxCell id="2" value="회원" style="whiteSpace=wrap;html=1;align=center;" parent="107" vertex="1">
                    <mxGeometry y="152" width="100" height="40" as="geometry"/>
                </mxCell>
                <mxCell id="5" value="아이디" style="ellipse;whiteSpace=wrap;html=1;align=center;fontStyle=4;" parent="107" vertex="1">
                    <mxGeometry x="176" width="100" height="40" as="geometry"/>
                </mxCell>
                <mxCell id="6" value="나이" style="ellipse;whiteSpace=wrap;html=1;align=center;" parent="107" vertex="1">
                    <mxGeometry x="176" y="152" width="100" height="40" as="geometry"/>
                </mxCell>
                <mxCell id="7" value="직업" style="ellipse;whiteSpace=wrap;html=1;align=center;" parent="107" vertex="1">
                    <mxGeometry x="176" y="202" width="100" height="40" as="geometry"/>
                </mxCell>
                <mxCell id="8" value="이름" style="ellipse;whiteSpace=wrap;html=1;align=center;" parent="107" vertex="1">
                    <mxGeometry x="176" y="100" width="100" height="40" as="geometry"/>
                </mxCell>
                <mxCell id="9" value="등급" style="ellipse;whiteSpace=wrap;html=1;align=center;" parent="107" vertex="1">
                    <mxGeometry x="176" y="250" width="100" height="40" as="geometry"/>
                </mxCell>
                <mxCell id="10" value="적립금" style="ellipse;whiteSpace=wrap;html=1;align=center;" parent="107" vertex="1">
                    <mxGeometry x="176" y="302" width="100" height="40" as="geometry"/>
                </mxCell>
                <mxCell id="30" value="" style="endArrow=none;html=1;rounded=0;entryX=0;entryY=0.5;entryDx=0;entryDy=0;exitX=1;exitY=0.5;exitDx=0;exitDy=0;" parent="107" source="2" target="5" edge="1">
                    <mxGeometry relative="1" as="geometry">
                        <mxPoint y="52" as="sourcePoint"/>
                        <mxPoint x="160" y="52" as="targetPoint"/>
                    </mxGeometry>
                </mxCell>
                <mxCell id="36" value="" style="endArrow=none;html=1;rounded=0;entryX=0;entryY=0.5;entryDx=0;entryDy=0;exitX=1;exitY=0.5;exitDx=0;exitDy=0;" parent="107" source="2" target="4" edge="1">
                    <mxGeometry relative="1" as="geometry">
                        <mxPoint x="110" y="181" as="sourcePoint"/>
                        <mxPoint x="186" y="30" as="targetPoint"/>
                    </mxGeometry>
                </mxCell>
                <mxCell id="37" value="" style="endArrow=none;html=1;rounded=0;entryX=0;entryY=0.5;entryDx=0;entryDy=0;exitX=1;exitY=0.5;exitDx=0;exitDy=0;" parent="107" source="2" target="8" edge="1">
                    <mxGeometry relative="1" as="geometry">
                        <mxPoint x="110" y="181" as="sourcePoint"/>
                        <mxPoint x="186" y="82" as="targetPoint"/>
                    </mxGeometry>
                </mxCell>
                <mxCell id="38" value="" style="endArrow=none;html=1;rounded=0;entryX=0;entryY=0.5;entryDx=0;entryDy=0;exitX=1;exitY=0.5;exitDx=0;exitDy=0;" parent="107" source="2" target="6" edge="1">
                    <mxGeometry relative="1" as="geometry">
                        <mxPoint x="110" y="181" as="sourcePoint"/>
                        <mxPoint x="186" y="130" as="targetPoint"/>
                    </mxGeometry>
                </mxCell>
                <mxCell id="39" value="" style="endArrow=none;html=1;rounded=0;entryX=0;entryY=0.5;entryDx=0;entryDy=0;exitX=1;exitY=0.5;exitDx=0;exitDy=0;" parent="107" source="2" target="7" edge="1">
                    <mxGeometry relative="1" as="geometry">
                        <mxPoint x="110" y="181" as="sourcePoint"/>
                        <mxPoint x="186" y="182" as="targetPoint"/>
                    </mxGeometry>
                </mxCell>
                <mxCell id="40" value="" style="endArrow=none;html=1;rounded=0;entryX=0;entryY=0.5;entryDx=0;entryDy=0;exitX=1;exitY=0.5;exitDx=0;exitDy=0;" parent="107" source="2" target="9" edge="1">
                    <mxGeometry relative="1" as="geometry">
                        <mxPoint x="110" y="181" as="sourcePoint"/>
                        <mxPoint x="186" y="232" as="targetPoint"/>
                    </mxGeometry>
                </mxCell>
                <mxCell id="41" value="" style="endArrow=none;html=1;rounded=0;entryX=0;entryY=0.5;entryDx=0;entryDy=0;exitX=1;exitY=0.5;exitDx=0;exitDy=0;" parent="107" source="2" target="10" edge="1">
                    <mxGeometry relative="1" as="geometry">
                        <mxPoint x="110" y="181" as="sourcePoint"/>
                        <mxPoint x="186" y="280" as="targetPoint"/>
                    </mxGeometry>
                </mxCell>
                <mxCell id="108" value="" style="group" parent="1" vertex="1" connectable="0">
                    <mxGeometry x="30" y="615" width="286" height="192" as="geometry"/>
                </mxCell>
                <mxCell id="66" value="주문" style="shape=rhombus;perimeter=rhombusPerimeter;whiteSpace=wrap;html=1;align=center;" parent="108" vertex="1">
                    <mxGeometry y="66" width="120" height="60" as="geometry"/>
                </mxCell>
                <mxCell id="79" value="주문번호" style="ellipse;whiteSpace=wrap;html=1;align=center;fontStyle=4;" parent="108" vertex="1">
                    <mxGeometry x="186" width="100" height="40" as="geometry"/>
                </mxCell>
                <mxCell id="80" value="주문수량" style="ellipse;whiteSpace=wrap;html=1;align=center;" parent="108" vertex="1">
                    <mxGeometry x="186" y="52" width="100" height="40" as="geometry"/>
                </mxCell>
                <mxCell id="81" value="주문일자" style="ellipse;whiteSpace=wrap;html=1;align=center;" parent="108" vertex="1">
                    <mxGeometry x="186" y="100" width="100" height="40" as="geometry"/>
                </mxCell>
                <mxCell id="82" value="배송지" style="ellipse;whiteSpace=wrap;html=1;align=center;" parent="108" vertex="1">
                    <mxGeometry x="186" y="152" width="100" height="40" as="geometry"/>
                </mxCell>
                <mxCell id="83" value="" style="endArrow=none;html=1;rounded=0;entryX=0;entryY=0.5;entryDx=0;entryDy=0;exitX=1;exitY=0.5;exitDx=0;exitDy=0;" parent="108" source="66" target="79" edge="1">
                    <mxGeometry relative="1" as="geometry">
                        <mxPoint x="110" as="sourcePoint"/>
                        <mxPoint x="186" y="150" as="targetPoint"/>
                    </mxGeometry>
                </mxCell>
                <mxCell id="84" value="" style="endArrow=none;html=1;rounded=0;entryX=0;entryY=0.5;entryDx=0;entryDy=0;exitX=1;exitY=0.5;exitDx=0;exitDy=0;" parent="108" source="66" target="80" edge="1">
                    <mxGeometry relative="1" as="geometry">
                        <mxPoint x="130" y="73" as="sourcePoint"/>
                        <mxPoint x="196" y="30" as="targetPoint"/>
                    </mxGeometry>
                </mxCell>
                <mxCell id="85" value="" style="endArrow=none;html=1;rounded=0;entryX=0;entryY=0.5;entryDx=0;entryDy=0;exitX=1;exitY=0.5;exitDx=0;exitDy=0;" parent="108" source="66" target="81" edge="1">
                    <mxGeometry relative="1" as="geometry">
                        <mxPoint x="130" y="73" as="sourcePoint"/>
                        <mxPoint x="196" y="82" as="targetPoint"/>
                    </mxGeometry>
                </mxCell>
                <mxCell id="86" value="" style="endArrow=none;html=1;rounded=0;entryX=0;entryY=0.5;entryDx=0;entryDy=0;exitX=1;exitY=0.5;exitDx=0;exitDy=0;" parent="108" source="66" target="82" edge="1">
                    <mxGeometry relative="1" as="geometry">
                        <mxPoint x="130" y="73" as="sourcePoint"/>
                        <mxPoint x="196" y="130" as="targetPoint"/>
                    </mxGeometry>
                </mxCell>
                <mxCell id="109" value="" style="group" parent="1" vertex="1" connectable="0">
                    <mxGeometry x="40" y="863" width="276" height="192" as="geometry"/>
                </mxCell>
                <mxCell id="20" value="상품" style="whiteSpace=wrap;html=1;align=center;" parent="109" vertex="1">
                    <mxGeometry y="76" width="100" height="40" as="geometry"/>
                </mxCell>
                <mxCell id="22" value="상품번호" style="ellipse;whiteSpace=wrap;html=1;align=center;fontStyle=4;" parent="109" vertex="1">
                    <mxGeometry x="176" width="100" height="40" as="geometry"/>
                </mxCell>
                <mxCell id="23" value="상품명" style="ellipse;whiteSpace=wrap;html=1;align=center;" parent="109" vertex="1">
                    <mxGeometry x="176" y="52" width="100" height="40" as="geometry"/>
                </mxCell>
                <mxCell id="24" value="재고량" style="ellipse;whiteSpace=wrap;html=1;align=center;" parent="109" vertex="1">
                    <mxGeometry x="176" y="100" width="100" height="40" as="geometry"/>
                </mxCell>
                <mxCell id="25" value="단가" style="ellipse;whiteSpace=wrap;html=1;align=center;" parent="109" vertex="1">
                    <mxGeometry x="176" y="152" width="100" height="40" as="geometry"/>
                </mxCell>
                <mxCell id="42" value="" style="endArrow=none;html=1;rounded=0;entryX=0;entryY=0.5;entryDx=0;entryDy=0;exitX=1;exitY=0.5;exitDx=0;exitDy=0;" parent="109" source="20" target="22" edge="1">
                    <mxGeometry relative="1" as="geometry">
                        <mxPoint x="110" y="37" as="sourcePoint"/>
                        <mxPoint x="186" y="188" as="targetPoint"/>
                    </mxGeometry>
                </mxCell>
                <mxCell id="43" value="" style="endArrow=none;html=1;rounded=0;exitX=1;exitY=0.5;exitDx=0;exitDy=0;entryX=0;entryY=0.5;entryDx=0;entryDy=0;" parent="109" source="20" target="23" edge="1">
                    <mxGeometry relative="1" as="geometry">
                        <mxPoint x="110" y="66" as="sourcePoint"/>
                        <mxPoint x="150" y="25" as="targetPoint"/>
                    </mxGeometry>
                </mxCell>
                <mxCell id="44" value="" style="endArrow=none;html=1;rounded=0;entryX=0;entryY=0.5;entryDx=0;entryDy=0;exitX=1;exitY=0.5;exitDx=0;exitDy=0;" parent="109" source="20" target="24" edge="1">
                    <mxGeometry relative="1" as="geometry">
                        <mxPoint x="30" y="192.5" as="sourcePoint"/>
                        <mxPoint x="90" y="117.5" as="targetPoint"/>
                    </mxGeometry>
                </mxCell>
                <mxCell id="45" value="" style="endArrow=none;html=1;rounded=0;entryX=0;entryY=0.5;entryDx=0;entryDy=0;exitX=1;exitY=0.5;exitDx=0;exitDy=0;" parent="109" source="20" target="25" edge="1">
                    <mxGeometry relative="1" as="geometry">
                        <mxPoint x="60" y="227" as="sourcePoint"/>
                        <mxPoint x="120" y="152" as="targetPoint"/>
                    </mxGeometry>
                </mxCell>
                <mxCell id="110" value="작성" style="shape=rhombus;perimeter=rhombusPerimeter;whiteSpace=wrap;html=1;align=center;" parent="1" vertex="1">
                    <mxGeometry x="30" y="105" width="120" height="60" as="geometry"/>
                </mxCell>
                <mxCell id="e3xx9v0pk6-5xxJEpcJ2-110" value="" style="endArrow=none;html=1;rounded=0;exitX=1;exitY=0.5;exitDx=0;exitDy=0;entryX=0;entryY=0.5;entryDx=0;entryDy=0;" parent="1" source="67" target="46" edge="1">
                    <mxGeometry relative="1" as="geometry">
                        <mxPoint x="250" y="1134" as="sourcePoint"/>
                        <mxPoint x="250" y="1344" as="targetPoint"/>
                    </mxGeometry>
                </mxCell>
                <mxCell id="e3xx9v0pk6-5xxJEpcJ2-111" value="N" style="resizable=0;html=1;whiteSpace=wrap;align=right;verticalAlign=bottom;" parent="e3xx9v0pk6-5xxJEpcJ2-110" connectable="0" vertex="1">
                    <mxGeometry x="1" relative="1" as="geometry">
                        <mxPoint x="-3" y="-2" as="offset"/>
                    </mxGeometry>
                </mxCell>
                <mxCell id="e3xx9v0pk6-5xxJEpcJ2-112" value="" style="endArrow=none;html=1;rounded=0;entryX=0.5;entryY=1;entryDx=0;entryDy=0;exitX=0.5;exitY=0;exitDx=0;exitDy=0;" parent="1" source="2" target="110" edge="1">
                    <mxGeometry relative="1" as="geometry">
                        <mxPoint x="160" y="335" as="sourcePoint"/>
                        <mxPoint x="160" y="67" as="targetPoint"/>
                    </mxGeometry>
                </mxCell>
                <mxCell id="e3xx9v0pk6-5xxJEpcJ2-113" value="1" style="resizable=0;html=1;whiteSpace=wrap;align=right;verticalAlign=bottom;" parent="e3xx9v0pk6-5xxJEpcJ2-112" connectable="0" vertex="1">
                    <mxGeometry x="1" relative="1" as="geometry">
                        <mxPoint x="11" y="210" as="offset"/>
                    </mxGeometry>
                </mxCell>
                <mxCell id="e3xx9v0pk6-5xxJEpcJ2-114" value="" style="endArrow=none;html=1;rounded=0;entryX=0;entryY=0.5;entryDx=0;entryDy=0;exitX=1;exitY=0.5;exitDx=0;exitDy=0;" parent="1" source="110" target="57" edge="1">
                    <mxGeometry relative="1" as="geometry">
                        <mxPoint x="230" y="299" as="sourcePoint"/>
                        <mxPoint x="230" y="89" as="targetPoint"/>
                    </mxGeometry>
                </mxCell>
                <mxCell id="e3xx9v0pk6-5xxJEpcJ2-115" value="N" style="resizable=0;html=1;whiteSpace=wrap;align=right;verticalAlign=bottom;" parent="e3xx9v0pk6-5xxJEpcJ2-114" connectable="0" vertex="1">
                    <mxGeometry x="1" relative="1" as="geometry">
                        <mxPoint x="-2" y="17" as="offset"/>
                    </mxGeometry>
                </mxCell>
            </root>
        </mxGraphModel>
    </diagram>
    <diagram id="KVqTYrRrz1uDCNs87lRw" name="Page-2">
        <mxGraphModel dx="1164" dy="779" grid="1" gridSize="10" guides="1" tooltips="1" connect="1" arrows="1" fold="1" page="1" pageScale="1" pageWidth="850" pageHeight="1100" math="0" shadow="0">
            <root>
                <mxCell id="0"/>
                <mxCell id="1" parent="0"/>
                <mxCell id="j9DFm-MaNCWs30LRw6dz-1" value="회원" style="shape=table;startSize=30;container=1;collapsible=1;childLayout=tableLayout;fixedRows=1;rowLines=0;fontStyle=1;align=center;resizeLast=1;html=1;" parent="1" vertex="1">
                    <mxGeometry x="40" y="80" width="160" height="240" as="geometry"/>
                </mxCell>
                <mxCell id="j9DFm-MaNCWs30LRw6dz-2" value="" style="shape=tableRow;horizontal=0;startSize=0;swimlaneHead=0;swimlaneBody=0;fillColor=none;collapsible=0;dropTarget=0;points=[[0,0.5],[1,0.5]];portConstraint=eastwest;top=0;left=0;right=0;bottom=1;" parent="j9DFm-MaNCWs30LRw6dz-1" vertex="1">
                    <mxGeometry y="30" width="160" height="30" as="geometry"/>
                </mxCell>
                <mxCell id="j9DFm-MaNCWs30LRw6dz-3" value="PK" style="shape=partialRectangle;connectable=0;fillColor=none;top=0;left=0;bottom=0;right=0;fontStyle=1;overflow=hidden;whiteSpace=wrap;html=1;" parent="j9DFm-MaNCWs30LRw6dz-2" vertex="1">
                    <mxGeometry width="30" height="30" as="geometry">
                        <mxRectangle width="30" height="30" as="alternateBounds"/>
                    </mxGeometry>
                </mxCell>
                <mxCell id="j9DFm-MaNCWs30LRw6dz-4" value="아이디" style="shape=partialRectangle;connectable=0;fillColor=none;top=0;left=0;bottom=0;right=0;align=left;spacingLeft=6;fontStyle=5;overflow=hidden;whiteSpace=wrap;html=1;" parent="j9DFm-MaNCWs30LRw6dz-2" vertex="1">
                    <mxGeometry x="30" width="130" height="30" as="geometry">
                        <mxRectangle width="130" height="30" as="alternateBounds"/>
                    </mxGeometry>
                </mxCell>
                <mxCell id="j9DFm-MaNCWs30LRw6dz-5" value="" style="shape=tableRow;horizontal=0;startSize=0;swimlaneHead=0;swimlaneBody=0;fillColor=none;collapsible=0;dropTarget=0;points=[[0,0.5],[1,0.5]];portConstraint=eastwest;top=0;left=0;right=0;bottom=0;" parent="j9DFm-MaNCWs30LRw6dz-1" vertex="1">
                    <mxGeometry y="60" width="160" height="30" as="geometry"/>
                </mxCell>
                <mxCell id="j9DFm-MaNCWs30LRw6dz-6" value="" style="shape=partialRectangle;connectable=0;fillColor=none;top=0;left=0;bottom=0;right=0;editable=1;overflow=hidden;whiteSpace=wrap;html=1;" parent="j9DFm-MaNCWs30LRw6dz-5" vertex="1">
                    <mxGeometry width="30" height="30" as="geometry">
                        <mxRectangle width="30" height="30" as="alternateBounds"/>
                    </mxGeometry>
                </mxCell>
                <mxCell id="j9DFm-MaNCWs30LRw6dz-7" value="비밀번호" style="shape=partialRectangle;connectable=0;fillColor=none;top=0;left=0;bottom=0;right=0;align=left;spacingLeft=6;overflow=hidden;whiteSpace=wrap;html=1;" parent="j9DFm-MaNCWs30LRw6dz-5" vertex="1">
                    <mxGeometry x="30" width="130" height="30" as="geometry">
                        <mxRectangle width="130" height="30" as="alternateBounds"/>
                    </mxGeometry>
                </mxCell>
                <mxCell id="j9DFm-MaNCWs30LRw6dz-8" value="" style="shape=tableRow;horizontal=0;startSize=0;swimlaneHead=0;swimlaneBody=0;fillColor=none;collapsible=0;dropTarget=0;points=[[0,0.5],[1,0.5]];portConstraint=eastwest;top=0;left=0;right=0;bottom=0;" parent="j9DFm-MaNCWs30LRw6dz-1" vertex="1">
                    <mxGeometry y="90" width="160" height="30" as="geometry"/>
                </mxCell>
                <mxCell id="j9DFm-MaNCWs30LRw6dz-9" value="" style="shape=partialRectangle;connectable=0;fillColor=none;top=0;left=0;bottom=0;right=0;editable=1;overflow=hidden;whiteSpace=wrap;html=1;" parent="j9DFm-MaNCWs30LRw6dz-8" vertex="1">
                    <mxGeometry width="30" height="30" as="geometry">
                        <mxRectangle width="30" height="30" as="alternateBounds"/>
                    </mxGeometry>
                </mxCell>
                <mxCell id="j9DFm-MaNCWs30LRw6dz-10" value="이름" style="shape=partialRectangle;connectable=0;fillColor=none;top=0;left=0;bottom=0;right=0;align=left;spacingLeft=6;overflow=hidden;whiteSpace=wrap;html=1;" parent="j9DFm-MaNCWs30LRw6dz-8" vertex="1">
                    <mxGeometry x="30" width="130" height="30" as="geometry">
                        <mxRectangle width="130" height="30" as="alternateBounds"/>
                    </mxGeometry>
                </mxCell>
                <mxCell id="j9DFm-MaNCWs30LRw6dz-11" value="" style="shape=tableRow;horizontal=0;startSize=0;swimlaneHead=0;swimlaneBody=0;fillColor=none;collapsible=0;dropTarget=0;points=[[0,0.5],[1,0.5]];portConstraint=eastwest;top=0;left=0;right=0;bottom=0;" parent="j9DFm-MaNCWs30LRw6dz-1" vertex="1">
                    <mxGeometry y="120" width="160" height="30" as="geometry"/>
                </mxCell>
                <mxCell id="j9DFm-MaNCWs30LRw6dz-12" value="" style="shape=partialRectangle;connectable=0;fillColor=none;top=0;left=0;bottom=0;right=0;editable=1;overflow=hidden;whiteSpace=wrap;html=1;" parent="j9DFm-MaNCWs30LRw6dz-11" vertex="1">
                    <mxGeometry width="30" height="30" as="geometry">
                        <mxRectangle width="30" height="30" as="alternateBounds"/>
                    </mxGeometry>
                </mxCell>
                <mxCell id="j9DFm-MaNCWs30LRw6dz-13" value="나이" style="shape=partialRectangle;connectable=0;fillColor=none;top=0;left=0;bottom=0;right=0;align=left;spacingLeft=6;overflow=hidden;whiteSpace=wrap;html=1;" parent="j9DFm-MaNCWs30LRw6dz-11" vertex="1">
                    <mxGeometry x="30" width="130" height="30" as="geometry">
                        <mxRectangle width="130" height="30" as="alternateBounds"/>
                    </mxGeometry>
                </mxCell>
                <mxCell id="BekZi4o4ftjttvCm7D4l-1" value="" style="shape=tableRow;horizontal=0;startSize=0;swimlaneHead=0;swimlaneBody=0;fillColor=none;collapsible=0;dropTarget=0;points=[[0,0.5],[1,0.5]];portConstraint=eastwest;top=0;left=0;right=0;bottom=0;" parent="j9DFm-MaNCWs30LRw6dz-1" vertex="1">
                    <mxGeometry y="150" width="160" height="30" as="geometry"/>
                </mxCell>
                <mxCell id="BekZi4o4ftjttvCm7D4l-2" value="" style="shape=partialRectangle;connectable=0;fillColor=none;top=0;left=0;bottom=0;right=0;editable=1;overflow=hidden;whiteSpace=wrap;html=1;" parent="BekZi4o4ftjttvCm7D4l-1" vertex="1">
                    <mxGeometry width="30" height="30" as="geometry">
                        <mxRectangle width="30" height="30" as="alternateBounds"/>
                    </mxGeometry>
                </mxCell>
                <mxCell id="BekZi4o4ftjttvCm7D4l-3" value="직업" style="shape=partialRectangle;connectable=0;fillColor=none;top=0;left=0;bottom=0;right=0;align=left;spacingLeft=6;overflow=hidden;whiteSpace=wrap;html=1;" parent="BekZi4o4ftjttvCm7D4l-1" vertex="1">
                    <mxGeometry x="30" width="130" height="30" as="geometry">
                        <mxRectangle width="130" height="30" as="alternateBounds"/>
                    </mxGeometry>
                </mxCell>
                <mxCell id="BekZi4o4ftjttvCm7D4l-4" value="" style="shape=tableRow;horizontal=0;startSize=0;swimlaneHead=0;swimlaneBody=0;fillColor=none;collapsible=0;dropTarget=0;points=[[0,0.5],[1,0.5]];portConstraint=eastwest;top=0;left=0;right=0;bottom=0;" parent="j9DFm-MaNCWs30LRw6dz-1" vertex="1">
                    <mxGeometry y="180" width="160" height="30" as="geometry"/>
                </mxCell>
                <mxCell id="BekZi4o4ftjttvCm7D4l-5" value="" style="shape=partialRectangle;connectable=0;fillColor=none;top=0;left=0;bottom=0;right=0;editable=1;overflow=hidden;whiteSpace=wrap;html=1;" parent="BekZi4o4ftjttvCm7D4l-4" vertex="1">
                    <mxGeometry width="30" height="30" as="geometry">
                        <mxRectangle width="30" height="30" as="alternateBounds"/>
                    </mxGeometry>
                </mxCell>
                <mxCell id="BekZi4o4ftjttvCm7D4l-6" value="등급" style="shape=partialRectangle;connectable=0;fillColor=none;top=0;left=0;bottom=0;right=0;align=left;spacingLeft=6;overflow=hidden;whiteSpace=wrap;html=1;" parent="BekZi4o4ftjttvCm7D4l-4" vertex="1">
                    <mxGeometry x="30" width="130" height="30" as="geometry">
                        <mxRectangle width="130" height="30" as="alternateBounds"/>
                    </mxGeometry>
                </mxCell>
                <mxCell id="BekZi4o4ftjttvCm7D4l-7" value="" style="shape=tableRow;horizontal=0;startSize=0;swimlaneHead=0;swimlaneBody=0;fillColor=none;collapsible=0;dropTarget=0;points=[[0,0.5],[1,0.5]];portConstraint=eastwest;top=0;left=0;right=0;bottom=0;" parent="j9DFm-MaNCWs30LRw6dz-1" vertex="1">
                    <mxGeometry y="210" width="160" height="30" as="geometry"/>
                </mxCell>
                <mxCell id="BekZi4o4ftjttvCm7D4l-8" value="" style="shape=partialRectangle;connectable=0;fillColor=none;top=0;left=0;bottom=0;right=0;editable=1;overflow=hidden;whiteSpace=wrap;html=1;" parent="BekZi4o4ftjttvCm7D4l-7" vertex="1">
                    <mxGeometry width="30" height="30" as="geometry">
                        <mxRectangle width="30" height="30" as="alternateBounds"/>
                    </mxGeometry>
                </mxCell>
                <mxCell id="BekZi4o4ftjttvCm7D4l-9" value="적립금" style="shape=partialRectangle;connectable=0;fillColor=none;top=0;left=0;bottom=0;right=0;align=left;spacingLeft=6;overflow=hidden;whiteSpace=wrap;html=1;" parent="BekZi4o4ftjttvCm7D4l-7" vertex="1">
                    <mxGeometry x="30" width="130" height="30" as="geometry">
                        <mxRectangle width="130" height="30" as="alternateBounds"/>
                    </mxGeometry>
                </mxCell>
                <mxCell id="sYhbgYfILxeCXGqpc9Vq-23" value="제조업체" style="shape=table;startSize=30;container=1;collapsible=1;childLayout=tableLayout;fixedRows=1;rowLines=0;fontStyle=1;align=center;resizeLast=1;html=1;" parent="1" vertex="1">
                    <mxGeometry x="440" y="80" width="160" height="180" as="geometry"/>
                </mxCell>
                <mxCell id="sYhbgYfILxeCXGqpc9Vq-24" value="" style="shape=tableRow;horizontal=0;startSize=0;swimlaneHead=0;swimlaneBody=0;fillColor=none;collapsible=0;dropTarget=0;points=[[0,0.5],[1,0.5]];portConstraint=eastwest;top=0;left=0;right=0;bottom=1;" parent="sYhbgYfILxeCXGqpc9Vq-23" vertex="1">
                    <mxGeometry y="30" width="160" height="30" as="geometry"/>
                </mxCell>
                <mxCell id="sYhbgYfILxeCXGqpc9Vq-25" value="PK" style="shape=partialRectangle;connectable=0;fillColor=none;top=0;left=0;bottom=0;right=0;fontStyle=1;overflow=hidden;whiteSpace=wrap;html=1;" parent="sYhbgYfILxeCXGqpc9Vq-24" vertex="1">
                    <mxGeometry width="30" height="30" as="geometry">
                        <mxRectangle width="30" height="30" as="alternateBounds"/>
                    </mxGeometry>
                </mxCell>
                <mxCell id="sYhbgYfILxeCXGqpc9Vq-26" value="업체코드" style="shape=partialRectangle;connectable=0;fillColor=none;top=0;left=0;bottom=0;right=0;align=left;spacingLeft=6;fontStyle=5;overflow=hidden;whiteSpace=wrap;html=1;" parent="sYhbgYfILxeCXGqpc9Vq-24" vertex="1">
                    <mxGeometry x="30" width="130" height="30" as="geometry">
                        <mxRectangle width="130" height="30" as="alternateBounds"/>
                    </mxGeometry>
                </mxCell>
                <mxCell id="sYhbgYfILxeCXGqpc9Vq-27" value="" style="shape=tableRow;horizontal=0;startSize=0;swimlaneHead=0;swimlaneBody=0;fillColor=none;collapsible=0;dropTarget=0;points=[[0,0.5],[1,0.5]];portConstraint=eastwest;top=0;left=0;right=0;bottom=0;" parent="sYhbgYfILxeCXGqpc9Vq-23" vertex="1">
                    <mxGeometry y="60" width="160" height="30" as="geometry"/>
                </mxCell>
                <mxCell id="sYhbgYfILxeCXGqpc9Vq-28" value="" style="shape=partialRectangle;connectable=0;fillColor=none;top=0;left=0;bottom=0;right=0;editable=1;overflow=hidden;whiteSpace=wrap;html=1;" parent="sYhbgYfILxeCXGqpc9Vq-27" vertex="1">
                    <mxGeometry width="30" height="30" as="geometry">
                        <mxRectangle width="30" height="30" as="alternateBounds"/>
                    </mxGeometry>
                </mxCell>
                <mxCell id="sYhbgYfILxeCXGqpc9Vq-29" value="업체명" style="shape=partialRectangle;connectable=0;fillColor=none;top=0;left=0;bottom=0;right=0;align=left;spacingLeft=6;overflow=hidden;whiteSpace=wrap;html=1;" parent="sYhbgYfILxeCXGqpc9Vq-27" vertex="1">
                    <mxGeometry x="30" width="130" height="30" as="geometry">
                        <mxRectangle width="130" height="30" as="alternateBounds"/>
                    </mxGeometry>
                </mxCell>
                <mxCell id="sYhbgYfILxeCXGqpc9Vq-30" value="" style="shape=tableRow;horizontal=0;startSize=0;swimlaneHead=0;swimlaneBody=0;fillColor=none;collapsible=0;dropTarget=0;points=[[0,0.5],[1,0.5]];portConstraint=eastwest;top=0;left=0;right=0;bottom=0;" parent="sYhbgYfILxeCXGqpc9Vq-23" vertex="1">
                    <mxGeometry y="90" width="160" height="30" as="geometry"/>
                </mxCell>
                <mxCell id="sYhbgYfILxeCXGqpc9Vq-31" value="" style="shape=partialRectangle;connectable=0;fillColor=none;top=0;left=0;bottom=0;right=0;editable=1;overflow=hidden;whiteSpace=wrap;html=1;" parent="sYhbgYfILxeCXGqpc9Vq-30" vertex="1">
                    <mxGeometry width="30" height="30" as="geometry">
                        <mxRectangle width="30" height="30" as="alternateBounds"/>
                    </mxGeometry>
                </mxCell>
                <mxCell id="sYhbgYfILxeCXGqpc9Vq-32" value="전화번호" style="shape=partialRectangle;connectable=0;fillColor=none;top=0;left=0;bottom=0;right=0;align=left;spacingLeft=6;overflow=hidden;whiteSpace=wrap;html=1;" parent="sYhbgYfILxeCXGqpc9Vq-30" vertex="1">
                    <mxGeometry x="30" width="130" height="30" as="geometry">
                        <mxRectangle width="130" height="30" as="alternateBounds"/>
                    </mxGeometry>
                </mxCell>
                <mxCell id="sYhbgYfILxeCXGqpc9Vq-33" value="" style="shape=tableRow;horizontal=0;startSize=0;swimlaneHead=0;swimlaneBody=0;fillColor=none;collapsible=0;dropTarget=0;points=[[0,0.5],[1,0.5]];portConstraint=eastwest;top=0;left=0;right=0;bottom=0;" parent="sYhbgYfILxeCXGqpc9Vq-23" vertex="1">
                    <mxGeometry y="120" width="160" height="30" as="geometry"/>
                </mxCell>
                <mxCell id="sYhbgYfILxeCXGqpc9Vq-34" value="" style="shape=partialRectangle;connectable=0;fillColor=none;top=0;left=0;bottom=0;right=0;editable=1;overflow=hidden;whiteSpace=wrap;html=1;" parent="sYhbgYfILxeCXGqpc9Vq-33" vertex="1">
                    <mxGeometry width="30" height="30" as="geometry">
                        <mxRectangle width="30" height="30" as="alternateBounds"/>
                    </mxGeometry>
                </mxCell>
                <mxCell id="sYhbgYfILxeCXGqpc9Vq-35" value="위치" style="shape=partialRectangle;connectable=0;fillColor=none;top=0;left=0;bottom=0;right=0;align=left;spacingLeft=6;overflow=hidden;whiteSpace=wrap;html=1;" parent="sYhbgYfILxeCXGqpc9Vq-33" vertex="1">
                    <mxGeometry x="30" width="130" height="30" as="geometry">
                        <mxRectangle width="130" height="30" as="alternateBounds"/>
                    </mxGeometry>
                </mxCell>
                <mxCell id="sYhbgYfILxeCXGqpc9Vq-36" value="" style="shape=tableRow;horizontal=0;startSize=0;swimlaneHead=0;swimlaneBody=0;fillColor=none;collapsible=0;dropTarget=0;points=[[0,0.5],[1,0.5]];portConstraint=eastwest;top=0;left=0;right=0;bottom=0;" parent="sYhbgYfILxeCXGqpc9Vq-23" vertex="1">
                    <mxGeometry y="150" width="160" height="30" as="geometry"/>
                </mxCell>
                <mxCell id="sYhbgYfILxeCXGqpc9Vq-37" value="" style="shape=partialRectangle;connectable=0;fillColor=none;top=0;left=0;bottom=0;right=0;editable=1;overflow=hidden;whiteSpace=wrap;html=1;" parent="sYhbgYfILxeCXGqpc9Vq-36" vertex="1">
                    <mxGeometry width="30" height="30" as="geometry">
                        <mxRectangle width="30" height="30" as="alternateBounds"/>
                    </mxGeometry>
                </mxCell>
                <mxCell id="sYhbgYfILxeCXGqpc9Vq-38" value="담당자" style="shape=partialRectangle;connectable=0;fillColor=none;top=0;left=0;bottom=0;right=0;align=left;spacingLeft=6;overflow=hidden;whiteSpace=wrap;html=1;" parent="sYhbgYfILxeCXGqpc9Vq-36" vertex="1">
                    <mxGeometry x="30" width="130" height="30" as="geometry">
                        <mxRectangle width="130" height="30" as="alternateBounds"/>
                    </mxGeometry>
                </mxCell>
                <mxCell id="sYhbgYfILxeCXGqpc9Vq-45" value="주문" style="shape=table;startSize=30;container=1;collapsible=1;childLayout=tableLayout;fixedRows=1;rowLines=0;fontStyle=1;align=center;resizeLast=1;html=1;" parent="1" vertex="1">
                    <mxGeometry x="640" y="80" width="160" height="210" as="geometry"/>
                </mxCell>
                <mxCell id="sYhbgYfILxeCXGqpc9Vq-46" value="" style="shape=tableRow;horizontal=0;startSize=0;swimlaneHead=0;swimlaneBody=0;fillColor=none;collapsible=0;dropTarget=0;points=[[0,0.5],[1,0.5]];portConstraint=eastwest;top=0;left=0;right=0;bottom=1;" parent="sYhbgYfILxeCXGqpc9Vq-45" vertex="1">
                    <mxGeometry y="30" width="160" height="30" as="geometry"/>
                </mxCell>
                <mxCell id="sYhbgYfILxeCXGqpc9Vq-47" value="PK" style="shape=partialRectangle;connectable=0;fillColor=none;top=0;left=0;bottom=0;right=0;fontStyle=1;overflow=hidden;whiteSpace=wrap;html=1;" parent="sYhbgYfILxeCXGqpc9Vq-46" vertex="1">
                    <mxGeometry width="30" height="30" as="geometry">
                        <mxRectangle width="30" height="30" as="alternateBounds"/>
                    </mxGeometry>
                </mxCell>
                <mxCell id="sYhbgYfILxeCXGqpc9Vq-48" value="상품번호" style="shape=partialRectangle;connectable=0;fillColor=none;top=0;left=0;bottom=0;right=0;align=left;spacingLeft=6;fontStyle=5;overflow=hidden;whiteSpace=wrap;html=1;" parent="sYhbgYfILxeCXGqpc9Vq-46" vertex="1">
                    <mxGeometry x="30" width="130" height="30" as="geometry">
                        <mxRectangle width="130" height="30" as="alternateBounds"/>
                    </mxGeometry>
                </mxCell>
                <mxCell id="JlqemHdE4aQY5XOAkRKC-4" value="" style="shape=tableRow;horizontal=0;startSize=0;swimlaneHead=0;swimlaneBody=0;fillColor=none;collapsible=0;dropTarget=0;points=[[0,0.5],[1,0.5]];portConstraint=eastwest;top=0;left=0;right=0;bottom=1;" parent="sYhbgYfILxeCXGqpc9Vq-45" vertex="1">
                    <mxGeometry y="60" width="160" height="30" as="geometry"/>
                </mxCell>
                <mxCell id="JlqemHdE4aQY5XOAkRKC-5" value="FK" style="shape=partialRectangle;connectable=0;fillColor=none;top=0;left=0;bottom=0;right=0;fontStyle=1;overflow=hidden;whiteSpace=wrap;html=1;" parent="JlqemHdE4aQY5XOAkRKC-4" vertex="1">
                    <mxGeometry width="30" height="30" as="geometry">
                        <mxRectangle width="30" height="30" as="alternateBounds"/>
                    </mxGeometry>
                </mxCell>
                <mxCell id="JlqemHdE4aQY5XOAkRKC-6" value="상품코드" style="shape=partialRectangle;connectable=0;fillColor=none;top=0;left=0;bottom=0;right=0;align=left;spacingLeft=6;fontStyle=5;overflow=hidden;whiteSpace=wrap;html=1;" parent="JlqemHdE4aQY5XOAkRKC-4" vertex="1">
                    <mxGeometry x="30" width="130" height="30" as="geometry">
                        <mxRectangle width="130" height="30" as="alternateBounds"/>
                    </mxGeometry>
                </mxCell>
                <mxCell id="relD7qsGF-9o5QY-R4CU-1" value="" style="shape=tableRow;horizontal=0;startSize=0;swimlaneHead=0;swimlaneBody=0;fillColor=none;collapsible=0;dropTarget=0;points=[[0,0.5],[1,0.5]];portConstraint=eastwest;top=0;left=0;right=0;bottom=1;" parent="sYhbgYfILxeCXGqpc9Vq-45" vertex="1">
                    <mxGeometry y="90" width="160" height="30" as="geometry"/>
                </mxCell>
                <mxCell id="relD7qsGF-9o5QY-R4CU-2" value="FK" style="shape=partialRectangle;connectable=0;fillColor=none;top=0;left=0;bottom=0;right=0;fontStyle=1;overflow=hidden;whiteSpace=wrap;html=1;" parent="relD7qsGF-9o5QY-R4CU-1" vertex="1">
                    <mxGeometry width="30" height="30" as="geometry">
                        <mxRectangle width="30" height="30" as="alternateBounds"/>
                    </mxGeometry>
                </mxCell>
                <mxCell id="relD7qsGF-9o5QY-R4CU-3" value="아이디" style="shape=partialRectangle;connectable=0;fillColor=none;top=0;left=0;bottom=0;right=0;align=left;spacingLeft=6;fontStyle=5;overflow=hidden;whiteSpace=wrap;html=1;" parent="relD7qsGF-9o5QY-R4CU-1" vertex="1">
                    <mxGeometry x="30" width="130" height="30" as="geometry">
                        <mxRectangle width="130" height="30" as="alternateBounds"/>
                    </mxGeometry>
                </mxCell>
                <mxCell id="sYhbgYfILxeCXGqpc9Vq-49" value="" style="shape=tableRow;horizontal=0;startSize=0;swimlaneHead=0;swimlaneBody=0;fillColor=none;collapsible=0;dropTarget=0;points=[[0,0.5],[1,0.5]];portConstraint=eastwest;top=0;left=0;right=0;bottom=0;" parent="sYhbgYfILxeCXGqpc9Vq-45" vertex="1">
                    <mxGeometry y="120" width="160" height="30" as="geometry"/>
                </mxCell>
                <mxCell id="sYhbgYfILxeCXGqpc9Vq-50" value="" style="shape=partialRectangle;connectable=0;fillColor=none;top=0;left=0;bottom=0;right=0;editable=1;overflow=hidden;whiteSpace=wrap;html=1;" parent="sYhbgYfILxeCXGqpc9Vq-49" vertex="1">
                    <mxGeometry width="30" height="30" as="geometry">
                        <mxRectangle width="30" height="30" as="alternateBounds"/>
                    </mxGeometry>
                </mxCell>
                <mxCell id="sYhbgYfILxeCXGqpc9Vq-51" value="주문수량" style="shape=partialRectangle;connectable=0;fillColor=none;top=0;left=0;bottom=0;right=0;align=left;spacingLeft=6;overflow=hidden;whiteSpace=wrap;html=1;" parent="sYhbgYfILxeCXGqpc9Vq-49" vertex="1">
                    <mxGeometry x="30" width="130" height="30" as="geometry">
                        <mxRectangle width="130" height="30" as="alternateBounds"/>
                    </mxGeometry>
                </mxCell>
                <mxCell id="sYhbgYfILxeCXGqpc9Vq-52" value="" style="shape=tableRow;horizontal=0;startSize=0;swimlaneHead=0;swimlaneBody=0;fillColor=none;collapsible=0;dropTarget=0;points=[[0,0.5],[1,0.5]];portConstraint=eastwest;top=0;left=0;right=0;bottom=0;" parent="sYhbgYfILxeCXGqpc9Vq-45" vertex="1">
                    <mxGeometry y="150" width="160" height="30" as="geometry"/>
                </mxCell>
                <mxCell id="sYhbgYfILxeCXGqpc9Vq-53" value="" style="shape=partialRectangle;connectable=0;fillColor=none;top=0;left=0;bottom=0;right=0;editable=1;overflow=hidden;whiteSpace=wrap;html=1;" parent="sYhbgYfILxeCXGqpc9Vq-52" vertex="1">
                    <mxGeometry width="30" height="30" as="geometry">
                        <mxRectangle width="30" height="30" as="alternateBounds"/>
                    </mxGeometry>
                </mxCell>
                <mxCell id="sYhbgYfILxeCXGqpc9Vq-54" value="배송지" style="shape=partialRectangle;connectable=0;fillColor=none;top=0;left=0;bottom=0;right=0;align=left;spacingLeft=6;overflow=hidden;whiteSpace=wrap;html=1;" parent="sYhbgYfILxeCXGqpc9Vq-52" vertex="1">
                    <mxGeometry x="30" width="130" height="30" as="geometry">
                        <mxRectangle width="130" height="30" as="alternateBounds"/>
                    </mxGeometry>
                </mxCell>
                <mxCell id="sYhbgYfILxeCXGqpc9Vq-55" value="" style="shape=tableRow;horizontal=0;startSize=0;swimlaneHead=0;swimlaneBody=0;fillColor=none;collapsible=0;dropTarget=0;points=[[0,0.5],[1,0.5]];portConstraint=eastwest;top=0;left=0;right=0;bottom=0;" parent="sYhbgYfILxeCXGqpc9Vq-45" vertex="1">
                    <mxGeometry y="180" width="160" height="30" as="geometry"/>
                </mxCell>
                <mxCell id="sYhbgYfILxeCXGqpc9Vq-56" value="" style="shape=partialRectangle;connectable=0;fillColor=none;top=0;left=0;bottom=0;right=0;editable=1;overflow=hidden;whiteSpace=wrap;html=1;" parent="sYhbgYfILxeCXGqpc9Vq-55" vertex="1">
                    <mxGeometry width="30" height="30" as="geometry">
                        <mxRectangle width="30" height="30" as="alternateBounds"/>
                    </mxGeometry>
                </mxCell>
                <mxCell id="sYhbgYfILxeCXGqpc9Vq-57" value="주문일자" style="shape=partialRectangle;connectable=0;fillColor=none;top=0;left=0;bottom=0;right=0;align=left;spacingLeft=6;overflow=hidden;whiteSpace=wrap;html=1;" parent="sYhbgYfILxeCXGqpc9Vq-55" vertex="1">
                    <mxGeometry x="30" width="130" height="30" as="geometry">
                        <mxRectangle width="130" height="30" as="alternateBounds"/>
                    </mxGeometry>
                </mxCell>
                <mxCell id="sYhbgYfILxeCXGqpc9Vq-67" value="게시글" style="shape=table;startSize=30;container=1;collapsible=1;childLayout=tableLayout;fixedRows=1;rowLines=0;fontStyle=1;align=center;resizeLast=1;html=1;" parent="1" vertex="1">
                    <mxGeometry x="240" y="80" width="160" height="180" as="geometry"/>
                </mxCell>
                <mxCell id="sYhbgYfILxeCXGqpc9Vq-68" value="" style="shape=tableRow;horizontal=0;startSize=0;swimlaneHead=0;swimlaneBody=0;fillColor=none;collapsible=0;dropTarget=0;points=[[0,0.5],[1,0.5]];portConstraint=eastwest;top=0;left=0;right=0;bottom=1;" parent="sYhbgYfILxeCXGqpc9Vq-67" vertex="1">
                    <mxGeometry y="30" width="160" height="30" as="geometry"/>
                </mxCell>
                <mxCell id="sYhbgYfILxeCXGqpc9Vq-69" value="PK" style="shape=partialRectangle;connectable=0;fillColor=none;top=0;left=0;bottom=0;right=0;fontStyle=1;overflow=hidden;whiteSpace=wrap;html=1;" parent="sYhbgYfILxeCXGqpc9Vq-68" vertex="1">
                    <mxGeometry width="30" height="30" as="geometry">
                        <mxRectangle width="30" height="30" as="alternateBounds"/>
                    </mxGeometry>
                </mxCell>
                <mxCell id="sYhbgYfILxeCXGqpc9Vq-70" value="글번호" style="shape=partialRectangle;connectable=0;fillColor=none;top=0;left=0;bottom=0;right=0;align=left;spacingLeft=6;fontStyle=5;overflow=hidden;whiteSpace=wrap;html=1;" parent="sYhbgYfILxeCXGqpc9Vq-68" vertex="1">
                    <mxGeometry x="30" width="130" height="30" as="geometry">
                        <mxRectangle width="130" height="30" as="alternateBounds"/>
                    </mxGeometry>
                </mxCell>
                <mxCell id="JlqemHdE4aQY5XOAkRKC-1" value="" style="shape=tableRow;horizontal=0;startSize=0;swimlaneHead=0;swimlaneBody=0;fillColor=none;collapsible=0;dropTarget=0;points=[[0,0.5],[1,0.5]];portConstraint=eastwest;top=0;left=0;right=0;bottom=1;" parent="sYhbgYfILxeCXGqpc9Vq-67" vertex="1">
                    <mxGeometry y="60" width="160" height="30" as="geometry"/>
                </mxCell>
                <mxCell id="JlqemHdE4aQY5XOAkRKC-2" value="FK" style="shape=partialRectangle;connectable=0;fillColor=none;top=0;left=0;bottom=0;right=0;fontStyle=1;overflow=hidden;whiteSpace=wrap;html=1;" parent="JlqemHdE4aQY5XOAkRKC-1" vertex="1">
                    <mxGeometry width="30" height="30" as="geometry">
                        <mxRectangle width="30" height="30" as="alternateBounds"/>
                    </mxGeometry>
                </mxCell>
                <mxCell id="JlqemHdE4aQY5XOAkRKC-3" value="아이디" style="shape=partialRectangle;connectable=0;fillColor=none;top=0;left=0;bottom=0;right=0;align=left;spacingLeft=6;fontStyle=5;overflow=hidden;whiteSpace=wrap;html=1;" parent="JlqemHdE4aQY5XOAkRKC-1" vertex="1">
                    <mxGeometry x="30" width="130" height="30" as="geometry">
                        <mxRectangle width="130" height="30" as="alternateBounds"/>
                    </mxGeometry>
                </mxCell>
                <mxCell id="sYhbgYfILxeCXGqpc9Vq-71" value="" style="shape=tableRow;horizontal=0;startSize=0;swimlaneHead=0;swimlaneBody=0;fillColor=none;collapsible=0;dropTarget=0;points=[[0,0.5],[1,0.5]];portConstraint=eastwest;top=0;left=0;right=0;bottom=0;" parent="sYhbgYfILxeCXGqpc9Vq-67" vertex="1">
                    <mxGeometry y="90" width="160" height="30" as="geometry"/>
                </mxCell>
                <mxCell id="sYhbgYfILxeCXGqpc9Vq-72" value="" style="shape=partialRectangle;connectable=0;fillColor=none;top=0;left=0;bottom=0;right=0;editable=1;overflow=hidden;whiteSpace=wrap;html=1;" parent="sYhbgYfILxeCXGqpc9Vq-71" vertex="1">
                    <mxGeometry width="30" height="30" as="geometry">
                        <mxRectangle width="30" height="30" as="alternateBounds"/>
                    </mxGeometry>
                </mxCell>
                <mxCell id="sYhbgYfILxeCXGqpc9Vq-73" value="제목" style="shape=partialRectangle;connectable=0;fillColor=none;top=0;left=0;bottom=0;right=0;align=left;spacingLeft=6;overflow=hidden;whiteSpace=wrap;html=1;" parent="sYhbgYfILxeCXGqpc9Vq-71" vertex="1">
                    <mxGeometry x="30" width="130" height="30" as="geometry">
                        <mxRectangle width="130" height="30" as="alternateBounds"/>
                    </mxGeometry>
                </mxCell>
                <mxCell id="sYhbgYfILxeCXGqpc9Vq-77" value="" style="shape=tableRow;horizontal=0;startSize=0;swimlaneHead=0;swimlaneBody=0;fillColor=none;collapsible=0;dropTarget=0;points=[[0,0.5],[1,0.5]];portConstraint=eastwest;top=0;left=0;right=0;bottom=0;" parent="sYhbgYfILxeCXGqpc9Vq-67" vertex="1">
                    <mxGeometry y="120" width="160" height="30" as="geometry"/>
                </mxCell>
                <mxCell id="sYhbgYfILxeCXGqpc9Vq-78" value="" style="shape=partialRectangle;connectable=0;fillColor=none;top=0;left=0;bottom=0;right=0;editable=1;overflow=hidden;whiteSpace=wrap;html=1;" parent="sYhbgYfILxeCXGqpc9Vq-77" vertex="1">
                    <mxGeometry width="30" height="30" as="geometry">
                        <mxRectangle width="30" height="30" as="alternateBounds"/>
                    </mxGeometry>
                </mxCell>
                <mxCell id="sYhbgYfILxeCXGqpc9Vq-79" value="나이" style="shape=partialRectangle;connectable=0;fillColor=none;top=0;left=0;bottom=0;right=0;align=left;spacingLeft=6;overflow=hidden;whiteSpace=wrap;html=1;" parent="sYhbgYfILxeCXGqpc9Vq-77" vertex="1">
                    <mxGeometry x="30" width="130" height="30" as="geometry">
                        <mxRectangle width="130" height="30" as="alternateBounds"/>
                    </mxGeometry>
                </mxCell>
                <mxCell id="sYhbgYfILxeCXGqpc9Vq-83" value="" style="shape=tableRow;horizontal=0;startSize=0;swimlaneHead=0;swimlaneBody=0;fillColor=none;collapsible=0;dropTarget=0;points=[[0,0.5],[1,0.5]];portConstraint=eastwest;top=0;left=0;right=0;bottom=0;" parent="sYhbgYfILxeCXGqpc9Vq-67" vertex="1">
                    <mxGeometry y="150" width="160" height="30" as="geometry"/>
                </mxCell>
                <mxCell id="sYhbgYfILxeCXGqpc9Vq-84" value="" style="shape=partialRectangle;connectable=0;fillColor=none;top=0;left=0;bottom=0;right=0;editable=1;overflow=hidden;whiteSpace=wrap;html=1;" parent="sYhbgYfILxeCXGqpc9Vq-83" vertex="1">
                    <mxGeometry width="30" height="30" as="geometry">
                        <mxRectangle width="30" height="30" as="alternateBounds"/>
                    </mxGeometry>
                </mxCell>
                <mxCell id="sYhbgYfILxeCXGqpc9Vq-85" value="작성일" style="shape=partialRectangle;connectable=0;fillColor=none;top=0;left=0;bottom=0;right=0;align=left;spacingLeft=6;overflow=hidden;whiteSpace=wrap;html=1;" parent="sYhbgYfILxeCXGqpc9Vq-83" vertex="1">
                    <mxGeometry x="30" width="130" height="30" as="geometry">
                        <mxRectangle width="130" height="30" as="alternateBounds"/>
                    </mxGeometry>
                </mxCell>
                <mxCell id="JlqemHdE4aQY5XOAkRKC-7" value="&lt;font style=&quot;color: rgb(255, 0, 0);&quot;&gt;1:1, N:1 관계는 외래키로 표현 (외래키는 N쪽에 표현)&lt;/font&gt;&lt;div&gt;&lt;font style=&quot;color: rgb(255, 0, 0);&quot;&gt;M:N 관계는 해당 관계를 테이블로 작성 (각각의 기본키를 외래키로 표현&lt;/font&gt;&lt;span style=&quot;background-color: transparent;&quot;&gt;)&lt;/span&gt;&lt;/div&gt;" style="text;html=1;align=center;verticalAlign=middle;resizable=0;points=[];autosize=1;strokeColor=none;fillColor=none;fontSize=17;fontColor=#FF0000;" parent="1" vertex="1">
                    <mxGeometry x="40" y="12" width="530" height="50" as="geometry"/>
                </mxCell>
                <mxCell id="JlqemHdE4aQY5XOAkRKC-8" value="상품" style="shape=table;startSize=30;container=1;collapsible=1;childLayout=tableLayout;fixedRows=1;rowLines=0;fontStyle=1;align=center;resizeLast=1;html=1;" parent="1" vertex="1">
                    <mxGeometry x="840" y="80" width="160" height="180" as="geometry"/>
                </mxCell>
                <mxCell id="JlqemHdE4aQY5XOAkRKC-9" value="" style="shape=tableRow;horizontal=0;startSize=0;swimlaneHead=0;swimlaneBody=0;fillColor=none;collapsible=0;dropTarget=0;points=[[0,0.5],[1,0.5]];portConstraint=eastwest;top=0;left=0;right=0;bottom=1;" parent="JlqemHdE4aQY5XOAkRKC-8" vertex="1">
                    <mxGeometry y="30" width="160" height="30" as="geometry"/>
                </mxCell>
                <mxCell id="JlqemHdE4aQY5XOAkRKC-10" value="PK" style="shape=partialRectangle;connectable=0;fillColor=none;top=0;left=0;bottom=0;right=0;fontStyle=1;overflow=hidden;whiteSpace=wrap;html=1;" parent="JlqemHdE4aQY5XOAkRKC-9" vertex="1">
                    <mxGeometry width="30" height="30" as="geometry">
                        <mxRectangle width="30" height="30" as="alternateBounds"/>
                    </mxGeometry>
                </mxCell>
                <mxCell id="JlqemHdE4aQY5XOAkRKC-11" value="상품번호" style="shape=partialRectangle;connectable=0;fillColor=none;top=0;left=0;bottom=0;right=0;align=left;spacingLeft=6;fontStyle=5;overflow=hidden;whiteSpace=wrap;html=1;" parent="JlqemHdE4aQY5XOAkRKC-9" vertex="1">
                    <mxGeometry x="30" width="130" height="30" as="geometry">
                        <mxRectangle width="130" height="30" as="alternateBounds"/>
                    </mxGeometry>
                </mxCell>
                <mxCell id="JlqemHdE4aQY5XOAkRKC-12" value="" style="shape=tableRow;horizontal=0;startSize=0;swimlaneHead=0;swimlaneBody=0;fillColor=none;collapsible=0;dropTarget=0;points=[[0,0.5],[1,0.5]];portConstraint=eastwest;top=0;left=0;right=0;bottom=1;" parent="JlqemHdE4aQY5XOAkRKC-8" vertex="1">
                    <mxGeometry y="60" width="160" height="30" as="geometry"/>
                </mxCell>
                <mxCell id="JlqemHdE4aQY5XOAkRKC-13" value="PK" style="shape=partialRectangle;connectable=0;fillColor=none;top=0;left=0;bottom=0;right=0;fontStyle=1;overflow=hidden;whiteSpace=wrap;html=1;" parent="JlqemHdE4aQY5XOAkRKC-12" vertex="1">
                    <mxGeometry width="30" height="30" as="geometry">
                        <mxRectangle width="30" height="30" as="alternateBounds"/>
                    </mxGeometry>
                </mxCell>
                <mxCell id="JlqemHdE4aQY5XOAkRKC-14" value="업체코드" style="shape=partialRectangle;connectable=0;fillColor=none;top=0;left=0;bottom=0;right=0;align=left;spacingLeft=6;fontStyle=5;overflow=hidden;whiteSpace=wrap;html=1;" parent="JlqemHdE4aQY5XOAkRKC-12" vertex="1">
                    <mxGeometry x="30" width="130" height="30" as="geometry">
                        <mxRectangle width="130" height="30" as="alternateBounds"/>
                    </mxGeometry>
                </mxCell>
                <mxCell id="JlqemHdE4aQY5XOAkRKC-15" value="" style="shape=tableRow;horizontal=0;startSize=0;swimlaneHead=0;swimlaneBody=0;fillColor=none;collapsible=0;dropTarget=0;points=[[0,0.5],[1,0.5]];portConstraint=eastwest;top=0;left=0;right=0;bottom=0;" parent="JlqemHdE4aQY5XOAkRKC-8" vertex="1">
                    <mxGeometry y="90" width="160" height="30" as="geometry"/>
                </mxCell>
                <mxCell id="JlqemHdE4aQY5XOAkRKC-16" value="" style="shape=partialRectangle;connectable=0;fillColor=none;top=0;left=0;bottom=0;right=0;editable=1;overflow=hidden;whiteSpace=wrap;html=1;" parent="JlqemHdE4aQY5XOAkRKC-15" vertex="1">
                    <mxGeometry width="30" height="30" as="geometry">
                        <mxRectangle width="30" height="30" as="alternateBounds"/>
                    </mxGeometry>
                </mxCell>
                <mxCell id="JlqemHdE4aQY5XOAkRKC-17" value="상품명" style="shape=partialRectangle;connectable=0;fillColor=none;top=0;left=0;bottom=0;right=0;align=left;spacingLeft=6;overflow=hidden;whiteSpace=wrap;html=1;" parent="JlqemHdE4aQY5XOAkRKC-15" vertex="1">
                    <mxGeometry x="30" width="130" height="30" as="geometry">
                        <mxRectangle width="130" height="30" as="alternateBounds"/>
                    </mxGeometry>
                </mxCell>
                <mxCell id="JlqemHdE4aQY5XOAkRKC-18" value="" style="shape=tableRow;horizontal=0;startSize=0;swimlaneHead=0;swimlaneBody=0;fillColor=none;collapsible=0;dropTarget=0;points=[[0,0.5],[1,0.5]];portConstraint=eastwest;top=0;left=0;right=0;bottom=0;" parent="JlqemHdE4aQY5XOAkRKC-8" vertex="1">
                    <mxGeometry y="120" width="160" height="30" as="geometry"/>
                </mxCell>
                <mxCell id="JlqemHdE4aQY5XOAkRKC-19" value="" style="shape=partialRectangle;connectable=0;fillColor=none;top=0;left=0;bottom=0;right=0;editable=1;overflow=hidden;whiteSpace=wrap;html=1;" parent="JlqemHdE4aQY5XOAkRKC-18" vertex="1">
                    <mxGeometry width="30" height="30" as="geometry">
                        <mxRectangle width="30" height="30" as="alternateBounds"/>
                    </mxGeometry>
                </mxCell>
                <mxCell id="JlqemHdE4aQY5XOAkRKC-20" value="재고량" style="shape=partialRectangle;connectable=0;fillColor=none;top=0;left=0;bottom=0;right=0;align=left;spacingLeft=6;overflow=hidden;whiteSpace=wrap;html=1;" parent="JlqemHdE4aQY5XOAkRKC-18" vertex="1">
                    <mxGeometry x="30" width="130" height="30" as="geometry">
                        <mxRectangle width="130" height="30" as="alternateBounds"/>
                    </mxGeometry>
                </mxCell>
                <mxCell id="JlqemHdE4aQY5XOAkRKC-21" value="" style="shape=tableRow;horizontal=0;startSize=0;swimlaneHead=0;swimlaneBody=0;fillColor=none;collapsible=0;dropTarget=0;points=[[0,0.5],[1,0.5]];portConstraint=eastwest;top=0;left=0;right=0;bottom=0;" parent="JlqemHdE4aQY5XOAkRKC-8" vertex="1">
                    <mxGeometry y="150" width="160" height="30" as="geometry"/>
                </mxCell>
                <mxCell id="JlqemHdE4aQY5XOAkRKC-22" value="" style="shape=partialRectangle;connectable=0;fillColor=none;top=0;left=0;bottom=0;right=0;editable=1;overflow=hidden;whiteSpace=wrap;html=1;" parent="JlqemHdE4aQY5XOAkRKC-21" vertex="1">
                    <mxGeometry width="30" height="30" as="geometry">
                        <mxRectangle width="30" height="30" as="alternateBounds"/>
                    </mxGeometry>
                </mxCell>
                <mxCell id="JlqemHdE4aQY5XOAkRKC-23" value="단가" style="shape=partialRectangle;connectable=0;fillColor=none;top=0;left=0;bottom=0;right=0;align=left;spacingLeft=6;overflow=hidden;whiteSpace=wrap;html=1;" parent="JlqemHdE4aQY5XOAkRKC-21" vertex="1">
                    <mxGeometry x="30" width="130" height="30" as="geometry">
                        <mxRectangle width="130" height="30" as="alternateBounds"/>
                    </mxGeometry>
                </mxCell>
            </root>
        </mxGraphModel>
    </diagram>
    <diagram id="sAQ_0T8ZwPVjjf42Qnsu" name="Page-3">
        <mxGraphModel dx="970" dy="649" grid="1" gridSize="10" guides="1" tooltips="1" connect="1" arrows="1" fold="1" page="1" pageScale="1" pageWidth="850" pageHeight="1100" math="0" shadow="0">
            <root>
                <mxCell id="0"/>
                <mxCell id="1" parent="0"/>
                <mxCell id="n_aXoln3au2w6LIpgW2P-1" value="학생" style="whiteSpace=wrap;html=1;align=center;" parent="1" vertex="1">
                    <mxGeometry x="289" y="360" width="100" height="40" as="geometry"/>
                </mxCell>
                <mxCell id="n_aXoln3au2w6LIpgW2P-2" value="학과" style="whiteSpace=wrap;html=1;align=center;" parent="1" vertex="1">
                    <mxGeometry x="620" y="472" width="100" height="40" as="geometry"/>
                </mxCell>
                <mxCell id="n_aXoln3au2w6LIpgW2P-3" value="교수" style="whiteSpace=wrap;html=1;align=center;" parent="1" vertex="1">
                    <mxGeometry x="951" y="360" width="100" height="40" as="geometry"/>
                </mxCell>
                <mxCell id="n_aXoln3au2w6LIpgW2P-4" value="과목" style="whiteSpace=wrap;html=1;align=center;" parent="1" vertex="1">
                    <mxGeometry x="620" y="160" width="100" height="40" as="geometry"/>
                </mxCell>
                <mxCell id="n_aXoln3au2w6LIpgW2P-5" value="수강" style="shape=rhombus;perimeter=rhombusPerimeter;whiteSpace=wrap;html=1;align=center;" parent="1" vertex="1">
                    <mxGeometry x="279" y="150" width="120" height="60" as="geometry"/>
                </mxCell>
                <mxCell id="n_aXoln3au2w6LIpgW2P-6" value="이름" style="ellipse;whiteSpace=wrap;html=1;align=center;" parent="1" vertex="1">
                    <mxGeometry x="289" y="430" width="100" height="40" as="geometry"/>
                </mxCell>
                <mxCell id="o6lMR0M16JyQbP7iyxbi-1" value="학번" style="ellipse;whiteSpace=wrap;html=1;align=center;fontStyle=4;" parent="1" vertex="1">
                    <mxGeometry x="169" y="430" width="100" height="40" as="geometry"/>
                </mxCell>
                <mxCell id="o6lMR0M16JyQbP7iyxbi-2" value="키" style="ellipse;whiteSpace=wrap;html=1;align=center;" parent="1" vertex="1">
                    <mxGeometry x="409" y="430" width="100" height="40" as="geometry"/>
                </mxCell>
                <mxCell id="o6lMR0M16JyQbP7iyxbi-4" value="" style="endArrow=none;html=1;rounded=0;entryX=0.5;entryY=1;entryDx=0;entryDy=0;exitX=0.5;exitY=0;exitDx=0;exitDy=0;" parent="1" source="o6lMR0M16JyQbP7iyxbi-1" target="n_aXoln3au2w6LIpgW2P-1" edge="1">
                    <mxGeometry relative="1" as="geometry">
                        <mxPoint x="419" y="490" as="sourcePoint"/>
                        <mxPoint x="579" y="490" as="targetPoint"/>
                    </mxGeometry>
                </mxCell>
                <mxCell id="o6lMR0M16JyQbP7iyxbi-6" value="" style="endArrow=none;html=1;rounded=0;entryX=0.5;entryY=1;entryDx=0;entryDy=0;exitX=0.5;exitY=0;exitDx=0;exitDy=0;" parent="1" source="n_aXoln3au2w6LIpgW2P-6" target="n_aXoln3au2w6LIpgW2P-1" edge="1">
                    <mxGeometry relative="1" as="geometry">
                        <mxPoint x="169" y="440" as="sourcePoint"/>
                        <mxPoint x="339" y="400" as="targetPoint"/>
                    </mxGeometry>
                </mxCell>
                <mxCell id="o6lMR0M16JyQbP7iyxbi-7" value="" style="endArrow=none;html=1;rounded=0;entryX=0.5;entryY=1;entryDx=0;entryDy=0;exitX=0.5;exitY=0;exitDx=0;exitDy=0;" parent="1" source="o6lMR0M16JyQbP7iyxbi-2" target="n_aXoln3au2w6LIpgW2P-1" edge="1">
                    <mxGeometry relative="1" as="geometry">
                        <mxPoint x="289" y="440" as="sourcePoint"/>
                        <mxPoint x="339" y="400" as="targetPoint"/>
                    </mxGeometry>
                </mxCell>
                <mxCell id="o6lMR0M16JyQbP7iyxbi-9" value="학과명" style="ellipse;whiteSpace=wrap;html=1;align=center;" parent="1" vertex="1">
                    <mxGeometry x="680" y="542" width="100" height="40" as="geometry"/>
                </mxCell>
                <mxCell id="o6lMR0M16JyQbP7iyxbi-10" value="학과코드" style="ellipse;whiteSpace=wrap;html=1;align=center;fontStyle=4;" parent="1" vertex="1">
                    <mxGeometry x="560" y="542" width="100" height="40" as="geometry"/>
                </mxCell>
                <mxCell id="o6lMR0M16JyQbP7iyxbi-11" value="" style="endArrow=none;html=1;rounded=0;entryX=0.5;entryY=1;entryDx=0;entryDy=0;exitX=0.5;exitY=0;exitDx=0;exitDy=0;" parent="1" source="o6lMR0M16JyQbP7iyxbi-10" target="n_aXoln3au2w6LIpgW2P-2" edge="1">
                    <mxGeometry relative="1" as="geometry">
                        <mxPoint x="510" y="522" as="sourcePoint"/>
                        <mxPoint x="680" y="482" as="targetPoint"/>
                    </mxGeometry>
                </mxCell>
                <mxCell id="o6lMR0M16JyQbP7iyxbi-12" value="" style="endArrow=none;html=1;rounded=0;entryX=0.5;entryY=1;entryDx=0;entryDy=0;exitX=0.5;exitY=0;exitDx=0;exitDy=0;" parent="1" source="o6lMR0M16JyQbP7iyxbi-9" target="n_aXoln3au2w6LIpgW2P-2" edge="1">
                    <mxGeometry relative="1" as="geometry">
                        <mxPoint x="620" y="552" as="sourcePoint"/>
                        <mxPoint x="680" y="512" as="targetPoint"/>
                    </mxGeometry>
                </mxCell>
                <mxCell id="o6lMR0M16JyQbP7iyxbi-13" value="교수명" style="ellipse;whiteSpace=wrap;html=1;align=center;" parent="1" vertex="1">
                    <mxGeometry x="1011" y="435" width="100" height="40" as="geometry"/>
                </mxCell>
                <mxCell id="o6lMR0M16JyQbP7iyxbi-14" value="교수코드" style="ellipse;whiteSpace=wrap;html=1;align=center;fontStyle=4;" parent="1" vertex="1">
                    <mxGeometry x="891" y="435" width="100" height="40" as="geometry"/>
                </mxCell>
                <mxCell id="o6lMR0M16JyQbP7iyxbi-16" value="" style="endArrow=none;html=1;rounded=0;entryX=0.5;entryY=1;entryDx=0;entryDy=0;exitX=0.5;exitY=0;exitDx=0;exitDy=0;" parent="1" source="o6lMR0M16JyQbP7iyxbi-14" target="n_aXoln3au2w6LIpgW2P-3" edge="1">
                    <mxGeometry relative="1" as="geometry">
                        <mxPoint x="871" y="420" as="sourcePoint"/>
                        <mxPoint x="931" y="380" as="targetPoint"/>
                    </mxGeometry>
                </mxCell>
                <mxCell id="o6lMR0M16JyQbP7iyxbi-17" value="" style="endArrow=none;html=1;rounded=0;entryX=0.5;entryY=1;entryDx=0;entryDy=0;exitX=0.5;exitY=0;exitDx=0;exitDy=0;" parent="1" source="o6lMR0M16JyQbP7iyxbi-13" target="n_aXoln3au2w6LIpgW2P-3" edge="1">
                    <mxGeometry relative="1" as="geometry">
                        <mxPoint x="891" y="445" as="sourcePoint"/>
                        <mxPoint x="1011" y="410" as="targetPoint"/>
                    </mxGeometry>
                </mxCell>
                <mxCell id="o6lMR0M16JyQbP7iyxbi-19" value="과목명" style="ellipse;whiteSpace=wrap;html=1;align=center;" parent="1" vertex="1">
                    <mxGeometry x="560" y="245" width="100" height="40" as="geometry"/>
                </mxCell>
                <mxCell id="o6lMR0M16JyQbP7iyxbi-20" value="과목코드" style="ellipse;whiteSpace=wrap;html=1;align=center;fontStyle=4;" parent="1" vertex="1">
                    <mxGeometry x="440" y="245" width="100" height="40" as="geometry"/>
                </mxCell>
                <mxCell id="o6lMR0M16JyQbP7iyxbi-22" value="시작일" style="ellipse;whiteSpace=wrap;html=1;align=center;" parent="1" vertex="1">
                    <mxGeometry x="680" y="245" width="100" height="40" as="geometry"/>
                </mxCell>
                <mxCell id="o6lMR0M16JyQbP7iyxbi-23" value="종료일" style="ellipse;whiteSpace=wrap;html=1;align=center;" parent="1" vertex="1">
                    <mxGeometry x="800" y="245" width="100" height="40" as="geometry"/>
                </mxCell>
                <mxCell id="o6lMR0M16JyQbP7iyxbi-24" value="" style="endArrow=none;html=1;rounded=0;entryX=0.5;entryY=1;entryDx=0;entryDy=0;exitX=0.5;exitY=0;exitDx=0;exitDy=0;" parent="1" source="o6lMR0M16JyQbP7iyxbi-20" target="n_aXoln3au2w6LIpgW2P-4" edge="1">
                    <mxGeometry relative="1" as="geometry">
                        <mxPoint x="460" y="205" as="sourcePoint"/>
                        <mxPoint x="580" y="170" as="targetPoint"/>
                    </mxGeometry>
                </mxCell>
                <mxCell id="o6lMR0M16JyQbP7iyxbi-25" value="" style="endArrow=none;html=1;rounded=0;entryX=0.5;entryY=1;entryDx=0;entryDy=0;exitX=0.5;exitY=0;exitDx=0;exitDy=0;" parent="1" source="o6lMR0M16JyQbP7iyxbi-19" target="n_aXoln3au2w6LIpgW2P-4" edge="1">
                    <mxGeometry relative="1" as="geometry">
                        <mxPoint x="440" y="255" as="sourcePoint"/>
                        <mxPoint x="700" y="220" as="targetPoint"/>
                    </mxGeometry>
                </mxCell>
                <mxCell id="o6lMR0M16JyQbP7iyxbi-27" value="" style="endArrow=none;html=1;rounded=0;entryX=0.5;entryY=1;entryDx=0;entryDy=0;exitX=0.5;exitY=0;exitDx=0;exitDy=0;" parent="1" source="o6lMR0M16JyQbP7iyxbi-22" target="n_aXoln3au2w6LIpgW2P-4" edge="1">
                    <mxGeometry relative="1" as="geometry">
                        <mxPoint x="680" y="255" as="sourcePoint"/>
                        <mxPoint x="700" y="220" as="targetPoint"/>
                    </mxGeometry>
                </mxCell>
                <mxCell id="o6lMR0M16JyQbP7iyxbi-28" value="" style="endArrow=none;html=1;rounded=0;entryX=0.5;entryY=1;entryDx=0;entryDy=0;exitX=0.5;exitY=0;exitDx=0;exitDy=0;" parent="1" source="o6lMR0M16JyQbP7iyxbi-23" target="n_aXoln3au2w6LIpgW2P-4" edge="1">
                    <mxGeometry relative="1" as="geometry">
                        <mxPoint x="800" y="255" as="sourcePoint"/>
                        <mxPoint x="700" y="220" as="targetPoint"/>
                    </mxGeometry>
                </mxCell>
                <mxCell id="xS5_9GmaFnksIlUtWNId-1" value="강의" style="shape=rhombus;perimeter=rhombusPerimeter;whiteSpace=wrap;html=1;align=center;" parent="1" vertex="1">
                    <mxGeometry x="941" y="150" width="120" height="60" as="geometry"/>
                </mxCell>
                <mxCell id="HYpPDVfQ4dOwX5w4J8aZ-1" value="수강번호" style="ellipse;whiteSpace=wrap;html=1;align=center;fontStyle=4;" parent="1" vertex="1">
                    <mxGeometry x="221" y="80" width="100" height="40" as="geometry"/>
                </mxCell>
                <mxCell id="HYpPDVfQ4dOwX5w4J8aZ-3" value="수강일자" style="ellipse;whiteSpace=wrap;html=1;align=center;" parent="1" vertex="1">
                    <mxGeometry x="361" y="80" width="100" height="40" as="geometry"/>
                </mxCell>
                <mxCell id="7v2yTR-PF6LxiTzDNGF--1" value="" style="endArrow=none;html=1;rounded=0;entryX=0.5;entryY=0;entryDx=0;entryDy=0;exitX=0.5;exitY=1;exitDx=0;exitDy=0;" parent="1" source="HYpPDVfQ4dOwX5w4J8aZ-1" target="n_aXoln3au2w6LIpgW2P-5" edge="1">
                    <mxGeometry relative="1" as="geometry">
                        <mxPoint x="179" y="245" as="sourcePoint"/>
                        <mxPoint x="339" y="245" as="targetPoint"/>
                    </mxGeometry>
                </mxCell>
                <mxCell id="7v2yTR-PF6LxiTzDNGF--3" value="" style="endArrow=none;html=1;rounded=0;entryX=0.5;entryY=0;entryDx=0;entryDy=0;exitX=0.5;exitY=1;exitDx=0;exitDy=0;" parent="1" source="HYpPDVfQ4dOwX5w4J8aZ-3" target="n_aXoln3au2w6LIpgW2P-5" edge="1">
                    <mxGeometry relative="1" as="geometry">
                        <mxPoint x="349" y="130" as="sourcePoint"/>
                        <mxPoint x="349" y="160" as="targetPoint"/>
                    </mxGeometry>
                </mxCell>
                <mxCell id="7v2yTR-PF6LxiTzDNGF--4" value="" style="endArrow=none;html=1;rounded=0;entryX=0;entryY=0.5;entryDx=0;entryDy=0;exitX=1;exitY=0.5;exitDx=0;exitDy=0;" parent="1" source="n_aXoln3au2w6LIpgW2P-1" target="q1ZcNz2sxpno0Nf4xvbc-1" edge="1">
                    <mxGeometry relative="1" as="geometry">
                        <mxPoint x="370" y="379.5" as="sourcePoint"/>
                        <mxPoint x="530" y="379.5" as="targetPoint"/>
                    </mxGeometry>
                </mxCell>
                <mxCell id="7v2yTR-PF6LxiTzDNGF--6" value="N" style="resizable=0;html=1;whiteSpace=wrap;align=right;verticalAlign=bottom;" parent="7v2yTR-PF6LxiTzDNGF--4" connectable="0" vertex="1">
                    <mxGeometry x="1" relative="1" as="geometry">
                        <mxPoint x="-208" as="offset"/>
                    </mxGeometry>
                </mxCell>
                <mxCell id="7v2yTR-PF6LxiTzDNGF--7" value="" style="endArrow=none;html=1;rounded=0;entryX=1;entryY=0.5;entryDx=0;entryDy=0;exitX=0;exitY=0.5;exitDx=0;exitDy=0;" parent="1" source="n_aXoln3au2w6LIpgW2P-3" target="q1ZcNz2sxpno0Nf4xvbc-1" edge="1">
                    <mxGeometry relative="1" as="geometry">
                        <mxPoint x="650" y="379.5" as="sourcePoint"/>
                        <mxPoint x="960" y="379.5" as="targetPoint"/>
                    </mxGeometry>
                </mxCell>
                <mxCell id="7v2yTR-PF6LxiTzDNGF--9" value="N" style="resizable=0;html=1;whiteSpace=wrap;align=right;verticalAlign=bottom;" parent="7v2yTR-PF6LxiTzDNGF--7" connectable="0" vertex="1">
                    <mxGeometry x="1" relative="1" as="geometry">
                        <mxPoint x="219" as="offset"/>
                    </mxGeometry>
                </mxCell>
                <mxCell id="7v2yTR-PF6LxiTzDNGF--10" value="" style="endArrow=none;html=1;rounded=0;entryX=0.5;entryY=1;entryDx=0;entryDy=0;exitX=0.5;exitY=0;exitDx=0;exitDy=0;" parent="1" source="n_aXoln3au2w6LIpgW2P-3" target="xS5_9GmaFnksIlUtWNId-1" edge="1">
                    <mxGeometry relative="1" as="geometry">
                        <mxPoint x="1071" y="320" as="sourcePoint"/>
                        <mxPoint x="771" y="320" as="targetPoint"/>
                    </mxGeometry>
                </mxCell>
                <mxCell id="7v2yTR-PF6LxiTzDNGF--11" value="1" style="resizable=0;html=1;whiteSpace=wrap;align=right;verticalAlign=bottom;" parent="7v2yTR-PF6LxiTzDNGF--10" connectable="0" vertex="1">
                    <mxGeometry x="1" relative="1" as="geometry">
                        <mxPoint x="11" y="148" as="offset"/>
                    </mxGeometry>
                </mxCell>
                <mxCell id="7v2yTR-PF6LxiTzDNGF--13" value="" style="endArrow=none;html=1;rounded=0;entryX=0;entryY=0.5;entryDx=0;entryDy=0;exitX=1;exitY=0.5;exitDx=0;exitDy=0;" parent="1" source="n_aXoln3au2w6LIpgW2P-4" target="xS5_9GmaFnksIlUtWNId-1" edge="1">
                    <mxGeometry relative="1" as="geometry">
                        <mxPoint x="949.5" y="285" as="sourcePoint"/>
                        <mxPoint x="949.5" y="135" as="targetPoint"/>
                    </mxGeometry>
                </mxCell>
                <mxCell id="7v2yTR-PF6LxiTzDNGF--14" value="N" style="resizable=0;html=1;whiteSpace=wrap;align=right;verticalAlign=bottom;" parent="7v2yTR-PF6LxiTzDNGF--13" connectable="0" vertex="1">
                    <mxGeometry x="1" relative="1" as="geometry">
                        <mxPoint x="-209" as="offset"/>
                    </mxGeometry>
                </mxCell>
                <mxCell id="7v2yTR-PF6LxiTzDNGF--15" value="" style="endArrow=none;html=1;rounded=0;entryX=0;entryY=0.5;entryDx=0;entryDy=0;exitX=1;exitY=0.5;exitDx=0;exitDy=0;" parent="1" source="n_aXoln3au2w6LIpgW2P-5" target="n_aXoln3au2w6LIpgW2P-4" edge="1">
                    <mxGeometry relative="1" as="geometry">
                        <mxPoint x="300" y="179.5" as="sourcePoint"/>
                        <mxPoint x="590" y="179.5" as="targetPoint"/>
                    </mxGeometry>
                </mxCell>
                <mxCell id="7v2yTR-PF6LxiTzDNGF--16" value="N" style="resizable=0;html=1;whiteSpace=wrap;align=right;verticalAlign=bottom;" parent="7v2yTR-PF6LxiTzDNGF--15" connectable="0" vertex="1">
                    <mxGeometry x="1" relative="1" as="geometry">
                        <mxPoint x="-2" as="offset"/>
                    </mxGeometry>
                </mxCell>
                <mxCell id="7v2yTR-PF6LxiTzDNGF--21" value="M" style="resizable=0;html=1;whiteSpace=wrap;align=right;verticalAlign=bottom;" parent="7v2yTR-PF6LxiTzDNGF--15" connectable="0" vertex="1">
                    <mxGeometry x="1" relative="1" as="geometry">
                        <mxPoint x="-266" y="179" as="offset"/>
                    </mxGeometry>
                </mxCell>
                <mxCell id="7v2yTR-PF6LxiTzDNGF--19" value="" style="endArrow=none;html=1;rounded=0;entryX=0.5;entryY=1;entryDx=0;entryDy=0;exitX=0.5;exitY=0;exitDx=0;exitDy=0;" parent="1" source="n_aXoln3au2w6LIpgW2P-1" target="n_aXoln3au2w6LIpgW2P-5" edge="1">
                    <mxGeometry relative="1" as="geometry">
                        <mxPoint x="249" y="245" as="sourcePoint"/>
                        <mxPoint x="549" y="245" as="targetPoint"/>
                    </mxGeometry>
                </mxCell>
                <mxCell id="q1ZcNz2sxpno0Nf4xvbc-1" value="소속" style="shape=rhombus;perimeter=rhombusPerimeter;whiteSpace=wrap;html=1;align=center;" parent="1" vertex="1">
                    <mxGeometry x="610" y="350" width="120" height="60" as="geometry"/>
                </mxCell>
                <mxCell id="q1ZcNz2sxpno0Nf4xvbc-2" value="" style="endArrow=none;html=1;rounded=0;exitX=0.5;exitY=1;exitDx=0;exitDy=0;" parent="1" source="q1ZcNz2sxpno0Nf4xvbc-1" target="n_aXoln3au2w6LIpgW2P-2" edge="1">
                    <mxGeometry relative="1" as="geometry">
                        <mxPoint x="500" y="520" as="sourcePoint"/>
                        <mxPoint x="800" y="520" as="targetPoint"/>
                    </mxGeometry>
                </mxCell>
                <mxCell id="q1ZcNz2sxpno0Nf4xvbc-3" value="1" style="resizable=0;html=1;whiteSpace=wrap;align=right;verticalAlign=bottom;" parent="q1ZcNz2sxpno0Nf4xvbc-2" connectable="0" vertex="1">
                    <mxGeometry x="1" relative="1" as="geometry">
                        <mxPoint x="-1" as="offset"/>
                    </mxGeometry>
                </mxCell>
            </root>
        </mxGraphModel>
    </diagram>
    <diagram id="EukZRChf3GC19wi_Hzye" name="Page-4">
        <mxGraphModel dx="1164" dy="779" grid="1" gridSize="10" guides="1" tooltips="1" connect="1" arrows="1" fold="1" page="1" pageScale="1" pageWidth="850" pageHeight="1100" math="0" shadow="0">
            <root>
                <mxCell id="0"/>
                <mxCell id="1" parent="0"/>
                <mxCell id="fJg3REAU3Zitw4MNoGfT-1" value="학생" style="shape=table;startSize=30;container=1;collapsible=1;childLayout=tableLayout;fixedRows=1;rowLines=0;fontStyle=1;align=center;resizeLast=1;html=1;" parent="1" vertex="1">
                    <mxGeometry x="40" y="80" width="120" height="150" as="geometry"/>
                </mxCell>
                <mxCell id="fJg3REAU3Zitw4MNoGfT-2" value="" style="shape=tableRow;horizontal=0;startSize=0;swimlaneHead=0;swimlaneBody=0;fillColor=none;collapsible=0;dropTarget=0;points=[[0,0.5],[1,0.5]];portConstraint=eastwest;top=0;left=0;right=0;bottom=1;" parent="fJg3REAU3Zitw4MNoGfT-1" vertex="1">
                    <mxGeometry y="30" width="120" height="30" as="geometry"/>
                </mxCell>
                <mxCell id="fJg3REAU3Zitw4MNoGfT-3" value="PK" style="shape=partialRectangle;connectable=0;fillColor=none;top=0;left=0;bottom=0;right=0;fontStyle=1;overflow=hidden;whiteSpace=wrap;html=1;" parent="fJg3REAU3Zitw4MNoGfT-2" vertex="1">
                    <mxGeometry width="30" height="30" as="geometry">
                        <mxRectangle width="30" height="30" as="alternateBounds"/>
                    </mxGeometry>
                </mxCell>
                <mxCell id="fJg3REAU3Zitw4MNoGfT-4" value="학번" style="shape=partialRectangle;connectable=0;fillColor=none;top=0;left=0;bottom=0;right=0;align=left;spacingLeft=6;fontStyle=5;overflow=hidden;whiteSpace=wrap;html=1;" parent="fJg3REAU3Zitw4MNoGfT-2" vertex="1">
                    <mxGeometry x="30" width="90" height="30" as="geometry">
                        <mxRectangle width="90" height="30" as="alternateBounds"/>
                    </mxGeometry>
                </mxCell>
                <mxCell id="gZOXdAlzh7RHZb94hadd-1" value="" style="shape=tableRow;horizontal=0;startSize=0;swimlaneHead=0;swimlaneBody=0;fillColor=none;collapsible=0;dropTarget=0;points=[[0,0.5],[1,0.5]];portConstraint=eastwest;top=0;left=0;right=0;bottom=1;" parent="fJg3REAU3Zitw4MNoGfT-1" vertex="1">
                    <mxGeometry y="60" width="120" height="30" as="geometry"/>
                </mxCell>
                <mxCell id="gZOXdAlzh7RHZb94hadd-2" value="FK" style="shape=partialRectangle;connectable=0;fillColor=none;top=0;left=0;bottom=0;right=0;fontStyle=1;overflow=hidden;whiteSpace=wrap;html=1;" parent="gZOXdAlzh7RHZb94hadd-1" vertex="1">
                    <mxGeometry width="30" height="30" as="geometry">
                        <mxRectangle width="30" height="30" as="alternateBounds"/>
                    </mxGeometry>
                </mxCell>
                <mxCell id="gZOXdAlzh7RHZb94hadd-3" value="학과코드" style="shape=partialRectangle;connectable=0;fillColor=none;top=0;left=0;bottom=0;right=0;align=left;spacingLeft=6;fontStyle=5;overflow=hidden;whiteSpace=wrap;html=1;" parent="gZOXdAlzh7RHZb94hadd-1" vertex="1">
                    <mxGeometry x="30" width="90" height="30" as="geometry">
                        <mxRectangle width="90" height="30" as="alternateBounds"/>
                    </mxGeometry>
                </mxCell>
                <mxCell id="fJg3REAU3Zitw4MNoGfT-5" value="" style="shape=tableRow;horizontal=0;startSize=0;swimlaneHead=0;swimlaneBody=0;fillColor=none;collapsible=0;dropTarget=0;points=[[0,0.5],[1,0.5]];portConstraint=eastwest;top=0;left=0;right=0;bottom=0;" parent="fJg3REAU3Zitw4MNoGfT-1" vertex="1">
                    <mxGeometry y="90" width="120" height="30" as="geometry"/>
                </mxCell>
                <mxCell id="fJg3REAU3Zitw4MNoGfT-6" value="" style="shape=partialRectangle;connectable=0;fillColor=none;top=0;left=0;bottom=0;right=0;editable=1;overflow=hidden;whiteSpace=wrap;html=1;" parent="fJg3REAU3Zitw4MNoGfT-5" vertex="1">
                    <mxGeometry width="30" height="30" as="geometry">
                        <mxRectangle width="30" height="30" as="alternateBounds"/>
                    </mxGeometry>
                </mxCell>
                <mxCell id="fJg3REAU3Zitw4MNoGfT-7" value="이름" style="shape=partialRectangle;connectable=0;fillColor=none;top=0;left=0;bottom=0;right=0;align=left;spacingLeft=6;overflow=hidden;whiteSpace=wrap;html=1;" parent="fJg3REAU3Zitw4MNoGfT-5" vertex="1">
                    <mxGeometry x="30" width="90" height="30" as="geometry">
                        <mxRectangle width="90" height="30" as="alternateBounds"/>
                    </mxGeometry>
                </mxCell>
                <mxCell id="fJg3REAU3Zitw4MNoGfT-8" value="" style="shape=tableRow;horizontal=0;startSize=0;swimlaneHead=0;swimlaneBody=0;fillColor=none;collapsible=0;dropTarget=0;points=[[0,0.5],[1,0.5]];portConstraint=eastwest;top=0;left=0;right=0;bottom=0;" parent="fJg3REAU3Zitw4MNoGfT-1" vertex="1">
                    <mxGeometry y="120" width="120" height="30" as="geometry"/>
                </mxCell>
                <mxCell id="fJg3REAU3Zitw4MNoGfT-9" value="" style="shape=partialRectangle;connectable=0;fillColor=none;top=0;left=0;bottom=0;right=0;editable=1;overflow=hidden;whiteSpace=wrap;html=1;" parent="fJg3REAU3Zitw4MNoGfT-8" vertex="1">
                    <mxGeometry width="30" height="30" as="geometry">
                        <mxRectangle width="30" height="30" as="alternateBounds"/>
                    </mxGeometry>
                </mxCell>
                <mxCell id="fJg3REAU3Zitw4MNoGfT-10" value="키" style="shape=partialRectangle;connectable=0;fillColor=none;top=0;left=0;bottom=0;right=0;align=left;spacingLeft=6;overflow=hidden;whiteSpace=wrap;html=1;" parent="fJg3REAU3Zitw4MNoGfT-8" vertex="1">
                    <mxGeometry x="30" width="90" height="30" as="geometry">
                        <mxRectangle width="90" height="30" as="alternateBounds"/>
                    </mxGeometry>
                </mxCell>
                <mxCell id="fJg3REAU3Zitw4MNoGfT-14" value="학과" style="shape=table;startSize=30;container=1;collapsible=1;childLayout=tableLayout;fixedRows=1;rowLines=0;fontStyle=1;align=center;resizeLast=1;html=1;" parent="1" vertex="1">
                    <mxGeometry x="200" y="80" width="120" height="90" as="geometry"/>
                </mxCell>
                <mxCell id="fJg3REAU3Zitw4MNoGfT-15" value="" style="shape=tableRow;horizontal=0;startSize=0;swimlaneHead=0;swimlaneBody=0;fillColor=none;collapsible=0;dropTarget=0;points=[[0,0.5],[1,0.5]];portConstraint=eastwest;top=0;left=0;right=0;bottom=1;" parent="fJg3REAU3Zitw4MNoGfT-14" vertex="1">
                    <mxGeometry y="30" width="120" height="30" as="geometry"/>
                </mxCell>
                <mxCell id="fJg3REAU3Zitw4MNoGfT-16" value="PK" style="shape=partialRectangle;connectable=0;fillColor=none;top=0;left=0;bottom=0;right=0;fontStyle=1;overflow=hidden;whiteSpace=wrap;html=1;" parent="fJg3REAU3Zitw4MNoGfT-15" vertex="1">
                    <mxGeometry width="30" height="30" as="geometry">
                        <mxRectangle width="30" height="30" as="alternateBounds"/>
                    </mxGeometry>
                </mxCell>
                <mxCell id="fJg3REAU3Zitw4MNoGfT-17" value="학과코드" style="shape=partialRectangle;connectable=0;fillColor=none;top=0;left=0;bottom=0;right=0;align=left;spacingLeft=6;fontStyle=5;overflow=hidden;whiteSpace=wrap;html=1;" parent="fJg3REAU3Zitw4MNoGfT-15" vertex="1">
                    <mxGeometry x="30" width="90" height="30" as="geometry">
                        <mxRectangle width="90" height="30" as="alternateBounds"/>
                    </mxGeometry>
                </mxCell>
                <mxCell id="fJg3REAU3Zitw4MNoGfT-18" value="" style="shape=tableRow;horizontal=0;startSize=0;swimlaneHead=0;swimlaneBody=0;fillColor=none;collapsible=0;dropTarget=0;points=[[0,0.5],[1,0.5]];portConstraint=eastwest;top=0;left=0;right=0;bottom=0;" parent="fJg3REAU3Zitw4MNoGfT-14" vertex="1">
                    <mxGeometry y="60" width="120" height="30" as="geometry"/>
                </mxCell>
                <mxCell id="fJg3REAU3Zitw4MNoGfT-19" value="" style="shape=partialRectangle;connectable=0;fillColor=none;top=0;left=0;bottom=0;right=0;editable=1;overflow=hidden;whiteSpace=wrap;html=1;" parent="fJg3REAU3Zitw4MNoGfT-18" vertex="1">
                    <mxGeometry width="30" height="30" as="geometry">
                        <mxRectangle width="30" height="30" as="alternateBounds"/>
                    </mxGeometry>
                </mxCell>
                <mxCell id="fJg3REAU3Zitw4MNoGfT-20" value="학과명" style="shape=partialRectangle;connectable=0;fillColor=none;top=0;left=0;bottom=0;right=0;align=left;spacingLeft=6;overflow=hidden;whiteSpace=wrap;html=1;" parent="fJg3REAU3Zitw4MNoGfT-18" vertex="1">
                    <mxGeometry x="30" width="90" height="30" as="geometry">
                        <mxRectangle width="90" height="30" as="alternateBounds"/>
                    </mxGeometry>
                </mxCell>
                <mxCell id="fJg3REAU3Zitw4MNoGfT-27" value="교수" style="shape=table;startSize=30;container=1;collapsible=1;childLayout=tableLayout;fixedRows=1;rowLines=0;fontStyle=1;align=center;resizeLast=1;html=1;" parent="1" vertex="1">
                    <mxGeometry x="360" y="80" width="120" height="120" as="geometry"/>
                </mxCell>
                <mxCell id="fJg3REAU3Zitw4MNoGfT-28" value="" style="shape=tableRow;horizontal=0;startSize=0;swimlaneHead=0;swimlaneBody=0;fillColor=none;collapsible=0;dropTarget=0;points=[[0,0.5],[1,0.5]];portConstraint=eastwest;top=0;left=0;right=0;bottom=1;" parent="fJg3REAU3Zitw4MNoGfT-27" vertex="1">
                    <mxGeometry y="30" width="120" height="30" as="geometry"/>
                </mxCell>
                <mxCell id="fJg3REAU3Zitw4MNoGfT-29" value="PK" style="shape=partialRectangle;connectable=0;fillColor=none;top=0;left=0;bottom=0;right=0;fontStyle=1;overflow=hidden;whiteSpace=wrap;html=1;" parent="fJg3REAU3Zitw4MNoGfT-28" vertex="1">
                    <mxGeometry width="30" height="30" as="geometry">
                        <mxRectangle width="30" height="30" as="alternateBounds"/>
                    </mxGeometry>
                </mxCell>
                <mxCell id="fJg3REAU3Zitw4MNoGfT-30" value="교수코드" style="shape=partialRectangle;connectable=0;fillColor=none;top=0;left=0;bottom=0;right=0;align=left;spacingLeft=6;fontStyle=5;overflow=hidden;whiteSpace=wrap;html=1;" parent="fJg3REAU3Zitw4MNoGfT-28" vertex="1">
                    <mxGeometry x="30" width="90" height="30" as="geometry">
                        <mxRectangle width="90" height="30" as="alternateBounds"/>
                    </mxGeometry>
                </mxCell>
                <mxCell id="gZOXdAlzh7RHZb94hadd-4" value="" style="shape=tableRow;horizontal=0;startSize=0;swimlaneHead=0;swimlaneBody=0;fillColor=none;collapsible=0;dropTarget=0;points=[[0,0.5],[1,0.5]];portConstraint=eastwest;top=0;left=0;right=0;bottom=1;" parent="fJg3REAU3Zitw4MNoGfT-27" vertex="1">
                    <mxGeometry y="60" width="120" height="30" as="geometry"/>
                </mxCell>
                <mxCell id="gZOXdAlzh7RHZb94hadd-5" value="FK" style="shape=partialRectangle;connectable=0;fillColor=none;top=0;left=0;bottom=0;right=0;fontStyle=1;overflow=hidden;whiteSpace=wrap;html=1;" parent="gZOXdAlzh7RHZb94hadd-4" vertex="1">
                    <mxGeometry width="30" height="30" as="geometry">
                        <mxRectangle width="30" height="30" as="alternateBounds"/>
                    </mxGeometry>
                </mxCell>
                <mxCell id="gZOXdAlzh7RHZb94hadd-6" value="학과코드" style="shape=partialRectangle;connectable=0;fillColor=none;top=0;left=0;bottom=0;right=0;align=left;spacingLeft=6;fontStyle=5;overflow=hidden;whiteSpace=wrap;html=1;" parent="gZOXdAlzh7RHZb94hadd-4" vertex="1">
                    <mxGeometry x="30" width="90" height="30" as="geometry">
                        <mxRectangle width="90" height="30" as="alternateBounds"/>
                    </mxGeometry>
                </mxCell>
                <mxCell id="fJg3REAU3Zitw4MNoGfT-31" value="" style="shape=tableRow;horizontal=0;startSize=0;swimlaneHead=0;swimlaneBody=0;fillColor=none;collapsible=0;dropTarget=0;points=[[0,0.5],[1,0.5]];portConstraint=eastwest;top=0;left=0;right=0;bottom=0;" parent="fJg3REAU3Zitw4MNoGfT-27" vertex="1">
                    <mxGeometry y="90" width="120" height="30" as="geometry"/>
                </mxCell>
                <mxCell id="fJg3REAU3Zitw4MNoGfT-32" value="" style="shape=partialRectangle;connectable=0;fillColor=none;top=0;left=0;bottom=0;right=0;editable=1;overflow=hidden;whiteSpace=wrap;html=1;" parent="fJg3REAU3Zitw4MNoGfT-31" vertex="1">
                    <mxGeometry width="30" height="30" as="geometry">
                        <mxRectangle width="30" height="30" as="alternateBounds"/>
                    </mxGeometry>
                </mxCell>
                <mxCell id="fJg3REAU3Zitw4MNoGfT-33" value="교수명" style="shape=partialRectangle;connectable=0;fillColor=none;top=0;left=0;bottom=0;right=0;align=left;spacingLeft=6;overflow=hidden;whiteSpace=wrap;html=1;" parent="fJg3REAU3Zitw4MNoGfT-31" vertex="1">
                    <mxGeometry x="30" width="90" height="30" as="geometry">
                        <mxRectangle width="90" height="30" as="alternateBounds"/>
                    </mxGeometry>
                </mxCell>
                <mxCell id="fJg3REAU3Zitw4MNoGfT-40" value="과목" style="shape=table;startSize=30;container=1;collapsible=1;childLayout=tableLayout;fixedRows=1;rowLines=0;fontStyle=1;align=center;resizeLast=1;html=1;" parent="1" vertex="1">
                    <mxGeometry x="520" y="80" width="120" height="180" as="geometry"/>
                </mxCell>
                <mxCell id="fJg3REAU3Zitw4MNoGfT-41" value="" style="shape=tableRow;horizontal=0;startSize=0;swimlaneHead=0;swimlaneBody=0;fillColor=none;collapsible=0;dropTarget=0;points=[[0,0.5],[1,0.5]];portConstraint=eastwest;top=0;left=0;right=0;bottom=1;" parent="fJg3REAU3Zitw4MNoGfT-40" vertex="1">
                    <mxGeometry y="30" width="120" height="30" as="geometry"/>
                </mxCell>
                <mxCell id="fJg3REAU3Zitw4MNoGfT-42" value="PK" style="shape=partialRectangle;connectable=0;fillColor=none;top=0;left=0;bottom=0;right=0;fontStyle=1;overflow=hidden;whiteSpace=wrap;html=1;" parent="fJg3REAU3Zitw4MNoGfT-41" vertex="1">
                    <mxGeometry width="30" height="30" as="geometry">
                        <mxRectangle width="30" height="30" as="alternateBounds"/>
                    </mxGeometry>
                </mxCell>
                <mxCell id="fJg3REAU3Zitw4MNoGfT-43" value="과목코드" style="shape=partialRectangle;connectable=0;fillColor=none;top=0;left=0;bottom=0;right=0;align=left;spacingLeft=6;fontStyle=5;overflow=hidden;whiteSpace=wrap;html=1;" parent="fJg3REAU3Zitw4MNoGfT-41" vertex="1">
                    <mxGeometry x="30" width="90" height="30" as="geometry">
                        <mxRectangle width="90" height="30" as="alternateBounds"/>
                    </mxGeometry>
                </mxCell>
                <mxCell id="gZOXdAlzh7RHZb94hadd-7" value="" style="shape=tableRow;horizontal=0;startSize=0;swimlaneHead=0;swimlaneBody=0;fillColor=none;collapsible=0;dropTarget=0;points=[[0,0.5],[1,0.5]];portConstraint=eastwest;top=0;left=0;right=0;bottom=1;" parent="fJg3REAU3Zitw4MNoGfT-40" vertex="1">
                    <mxGeometry y="60" width="120" height="30" as="geometry"/>
                </mxCell>
                <mxCell id="gZOXdAlzh7RHZb94hadd-8" value="FK" style="shape=partialRectangle;connectable=0;fillColor=none;top=0;left=0;bottom=0;right=0;fontStyle=1;overflow=hidden;whiteSpace=wrap;html=1;" parent="gZOXdAlzh7RHZb94hadd-7" vertex="1">
                    <mxGeometry width="30" height="30" as="geometry">
                        <mxRectangle width="30" height="30" as="alternateBounds"/>
                    </mxGeometry>
                </mxCell>
                <mxCell id="gZOXdAlzh7RHZb94hadd-9" value="교수코드" style="shape=partialRectangle;connectable=0;fillColor=none;top=0;left=0;bottom=0;right=0;align=left;spacingLeft=6;fontStyle=5;overflow=hidden;whiteSpace=wrap;html=1;" parent="gZOXdAlzh7RHZb94hadd-7" vertex="1">
                    <mxGeometry x="30" width="90" height="30" as="geometry">
                        <mxRectangle width="90" height="30" as="alternateBounds"/>
                    </mxGeometry>
                </mxCell>
                <mxCell id="fJg3REAU3Zitw4MNoGfT-44" value="" style="shape=tableRow;horizontal=0;startSize=0;swimlaneHead=0;swimlaneBody=0;fillColor=none;collapsible=0;dropTarget=0;points=[[0,0.5],[1,0.5]];portConstraint=eastwest;top=0;left=0;right=0;bottom=0;" parent="fJg3REAU3Zitw4MNoGfT-40" vertex="1">
                    <mxGeometry y="90" width="120" height="30" as="geometry"/>
                </mxCell>
                <mxCell id="fJg3REAU3Zitw4MNoGfT-45" value="" style="shape=partialRectangle;connectable=0;fillColor=none;top=0;left=0;bottom=0;right=0;editable=1;overflow=hidden;whiteSpace=wrap;html=1;" parent="fJg3REAU3Zitw4MNoGfT-44" vertex="1">
                    <mxGeometry width="30" height="30" as="geometry">
                        <mxRectangle width="30" height="30" as="alternateBounds"/>
                    </mxGeometry>
                </mxCell>
                <mxCell id="fJg3REAU3Zitw4MNoGfT-46" value="과목명" style="shape=partialRectangle;connectable=0;fillColor=none;top=0;left=0;bottom=0;right=0;align=left;spacingLeft=6;overflow=hidden;whiteSpace=wrap;html=1;" parent="fJg3REAU3Zitw4MNoGfT-44" vertex="1">
                    <mxGeometry x="30" width="90" height="30" as="geometry">
                        <mxRectangle width="90" height="30" as="alternateBounds"/>
                    </mxGeometry>
                </mxCell>
                <mxCell id="fJg3REAU3Zitw4MNoGfT-47" value="" style="shape=tableRow;horizontal=0;startSize=0;swimlaneHead=0;swimlaneBody=0;fillColor=none;collapsible=0;dropTarget=0;points=[[0,0.5],[1,0.5]];portConstraint=eastwest;top=0;left=0;right=0;bottom=0;" parent="fJg3REAU3Zitw4MNoGfT-40" vertex="1">
                    <mxGeometry y="120" width="120" height="30" as="geometry"/>
                </mxCell>
                <mxCell id="fJg3REAU3Zitw4MNoGfT-48" value="" style="shape=partialRectangle;connectable=0;fillColor=none;top=0;left=0;bottom=0;right=0;editable=1;overflow=hidden;whiteSpace=wrap;html=1;" parent="fJg3REAU3Zitw4MNoGfT-47" vertex="1">
                    <mxGeometry width="30" height="30" as="geometry">
                        <mxRectangle width="30" height="30" as="alternateBounds"/>
                    </mxGeometry>
                </mxCell>
                <mxCell id="fJg3REAU3Zitw4MNoGfT-49" value="시작일" style="shape=partialRectangle;connectable=0;fillColor=none;top=0;left=0;bottom=0;right=0;align=left;spacingLeft=6;overflow=hidden;whiteSpace=wrap;html=1;" parent="fJg3REAU3Zitw4MNoGfT-47" vertex="1">
                    <mxGeometry x="30" width="90" height="30" as="geometry">
                        <mxRectangle width="90" height="30" as="alternateBounds"/>
                    </mxGeometry>
                </mxCell>
                <mxCell id="fJg3REAU3Zitw4MNoGfT-50" value="" style="shape=tableRow;horizontal=0;startSize=0;swimlaneHead=0;swimlaneBody=0;fillColor=none;collapsible=0;dropTarget=0;points=[[0,0.5],[1,0.5]];portConstraint=eastwest;top=0;left=0;right=0;bottom=0;" parent="fJg3REAU3Zitw4MNoGfT-40" vertex="1">
                    <mxGeometry y="150" width="120" height="30" as="geometry"/>
                </mxCell>
                <mxCell id="fJg3REAU3Zitw4MNoGfT-51" value="" style="shape=partialRectangle;connectable=0;fillColor=none;top=0;left=0;bottom=0;right=0;editable=1;overflow=hidden;whiteSpace=wrap;html=1;" parent="fJg3REAU3Zitw4MNoGfT-50" vertex="1">
                    <mxGeometry width="30" height="30" as="geometry">
                        <mxRectangle width="30" height="30" as="alternateBounds"/>
                    </mxGeometry>
                </mxCell>
                <mxCell id="fJg3REAU3Zitw4MNoGfT-52" value="종료일" style="shape=partialRectangle;connectable=0;fillColor=none;top=0;left=0;bottom=0;right=0;align=left;spacingLeft=6;overflow=hidden;whiteSpace=wrap;html=1;" parent="fJg3REAU3Zitw4MNoGfT-50" vertex="1">
                    <mxGeometry x="30" width="90" height="30" as="geometry">
                        <mxRectangle width="90" height="30" as="alternateBounds"/>
                    </mxGeometry>
                </mxCell>
                <mxCell id="XRKD9F-2k_quL4dmL3Ql-1" value="&lt;font style=&quot;color: rgb(255, 0, 0);&quot;&gt;1:1, N:1 관계는 외래키로 표현 (외래키는 N쪽에 표현)&lt;/font&gt;&lt;div&gt;&lt;font style=&quot;color: rgb(255, 0, 0);&quot;&gt;M:N 관계는 해당 관계를 테이블로 작성 (각각의 기본키를 외래키로 표현&lt;/font&gt;&lt;span style=&quot;background-color: transparent;&quot;&gt;)&lt;/span&gt;&lt;/div&gt;" style="text;html=1;align=center;verticalAlign=middle;resizable=0;points=[];autosize=1;strokeColor=none;fillColor=none;fontSize=17;fontColor=#FF0000;" vertex="1" parent="1">
                    <mxGeometry x="40" y="12" width="530" height="50" as="geometry"/>
                </mxCell>
                <mxCell id="XRKD9F-2k_quL4dmL3Ql-2" value="수강" style="shape=table;startSize=30;container=1;collapsible=1;childLayout=tableLayout;fixedRows=1;rowLines=0;fontStyle=1;align=center;resizeLast=1;html=1;" vertex="1" parent="1">
                    <mxGeometry x="680" y="80" width="120" height="150" as="geometry"/>
                </mxCell>
                <mxCell id="XRKD9F-2k_quL4dmL3Ql-3" value="" style="shape=tableRow;horizontal=0;startSize=0;swimlaneHead=0;swimlaneBody=0;fillColor=none;collapsible=0;dropTarget=0;points=[[0,0.5],[1,0.5]];portConstraint=eastwest;top=0;left=0;right=0;bottom=1;" vertex="1" parent="XRKD9F-2k_quL4dmL3Ql-2">
                    <mxGeometry y="30" width="120" height="30" as="geometry"/>
                </mxCell>
                <mxCell id="XRKD9F-2k_quL4dmL3Ql-4" value="PK" style="shape=partialRectangle;connectable=0;fillColor=none;top=0;left=0;bottom=0;right=0;fontStyle=1;overflow=hidden;whiteSpace=wrap;html=1;" vertex="1" parent="XRKD9F-2k_quL4dmL3Ql-3">
                    <mxGeometry width="30" height="30" as="geometry">
                        <mxRectangle width="30" height="30" as="alternateBounds"/>
                    </mxGeometry>
                </mxCell>
                <mxCell id="XRKD9F-2k_quL4dmL3Ql-5" value="수강코드" style="shape=partialRectangle;connectable=0;fillColor=none;top=0;left=0;bottom=0;right=0;align=left;spacingLeft=6;fontStyle=5;overflow=hidden;whiteSpace=wrap;html=1;" vertex="1" parent="XRKD9F-2k_quL4dmL3Ql-3">
                    <mxGeometry x="30" width="90" height="30" as="geometry">
                        <mxRectangle width="90" height="30" as="alternateBounds"/>
                    </mxGeometry>
                </mxCell>
                <mxCell id="XRKD9F-2k_quL4dmL3Ql-6" value="" style="shape=tableRow;horizontal=0;startSize=0;swimlaneHead=0;swimlaneBody=0;fillColor=none;collapsible=0;dropTarget=0;points=[[0,0.5],[1,0.5]];portConstraint=eastwest;top=0;left=0;right=0;bottom=1;" vertex="1" parent="XRKD9F-2k_quL4dmL3Ql-2">
                    <mxGeometry y="60" width="120" height="30" as="geometry"/>
                </mxCell>
                <mxCell id="XRKD9F-2k_quL4dmL3Ql-7" value="FK" style="shape=partialRectangle;connectable=0;fillColor=none;top=0;left=0;bottom=0;right=0;fontStyle=1;overflow=hidden;whiteSpace=wrap;html=1;" vertex="1" parent="XRKD9F-2k_quL4dmL3Ql-6">
                    <mxGeometry width="30" height="30" as="geometry">
                        <mxRectangle width="30" height="30" as="alternateBounds"/>
                    </mxGeometry>
                </mxCell>
                <mxCell id="XRKD9F-2k_quL4dmL3Ql-8" value="학생코드" style="shape=partialRectangle;connectable=0;fillColor=none;top=0;left=0;bottom=0;right=0;align=left;spacingLeft=6;fontStyle=5;overflow=hidden;whiteSpace=wrap;html=1;" vertex="1" parent="XRKD9F-2k_quL4dmL3Ql-6">
                    <mxGeometry x="30" width="90" height="30" as="geometry">
                        <mxRectangle width="90" height="30" as="alternateBounds"/>
                    </mxGeometry>
                </mxCell>
                <mxCell id="XRKD9F-2k_quL4dmL3Ql-15" value="" style="shape=tableRow;horizontal=0;startSize=0;swimlaneHead=0;swimlaneBody=0;fillColor=none;collapsible=0;dropTarget=0;points=[[0,0.5],[1,0.5]];portConstraint=eastwest;top=0;left=0;right=0;bottom=1;" vertex="1" parent="XRKD9F-2k_quL4dmL3Ql-2">
                    <mxGeometry y="90" width="120" height="30" as="geometry"/>
                </mxCell>
                <mxCell id="XRKD9F-2k_quL4dmL3Ql-16" value="FK" style="shape=partialRectangle;connectable=0;fillColor=none;top=0;left=0;bottom=0;right=0;fontStyle=1;overflow=hidden;whiteSpace=wrap;html=1;" vertex="1" parent="XRKD9F-2k_quL4dmL3Ql-15">
                    <mxGeometry width="30" height="30" as="geometry">
                        <mxRectangle width="30" height="30" as="alternateBounds"/>
                    </mxGeometry>
                </mxCell>
                <mxCell id="XRKD9F-2k_quL4dmL3Ql-17" value="과목코드" style="shape=partialRectangle;connectable=0;fillColor=none;top=0;left=0;bottom=0;right=0;align=left;spacingLeft=6;fontStyle=5;overflow=hidden;whiteSpace=wrap;html=1;" vertex="1" parent="XRKD9F-2k_quL4dmL3Ql-15">
                    <mxGeometry x="30" width="90" height="30" as="geometry">
                        <mxRectangle width="90" height="30" as="alternateBounds"/>
                    </mxGeometry>
                </mxCell>
                <mxCell id="XRKD9F-2k_quL4dmL3Ql-9" value="" style="shape=tableRow;horizontal=0;startSize=0;swimlaneHead=0;swimlaneBody=0;fillColor=none;collapsible=0;dropTarget=0;points=[[0,0.5],[1,0.5]];portConstraint=eastwest;top=0;left=0;right=0;bottom=0;" vertex="1" parent="XRKD9F-2k_quL4dmL3Ql-2">
                    <mxGeometry y="120" width="120" height="30" as="geometry"/>
                </mxCell>
                <mxCell id="XRKD9F-2k_quL4dmL3Ql-10" value="" style="shape=partialRectangle;connectable=0;fillColor=none;top=0;left=0;bottom=0;right=0;editable=1;overflow=hidden;whiteSpace=wrap;html=1;" vertex="1" parent="XRKD9F-2k_quL4dmL3Ql-9">
                    <mxGeometry width="30" height="30" as="geometry">
                        <mxRectangle width="30" height="30" as="alternateBounds"/>
                    </mxGeometry>
                </mxCell>
                <mxCell id="XRKD9F-2k_quL4dmL3Ql-11" value="수강일자" style="shape=partialRectangle;connectable=0;fillColor=none;top=0;left=0;bottom=0;right=0;align=left;spacingLeft=6;overflow=hidden;whiteSpace=wrap;html=1;" vertex="1" parent="XRKD9F-2k_quL4dmL3Ql-9">
                    <mxGeometry x="30" width="90" height="30" as="geometry">
                        <mxRectangle width="90" height="30" as="alternateBounds"/>
                    </mxGeometry>
                </mxCell>
            </root>
        </mxGraphModel>
    </diagram>
</mxfile>